<svg version="1.2" xmlns="http://www.w3.org/2000/svg" viewBox="0 0 460 250" width="460" height="250">
	<title>CPUs-svg</title>
	<defs>
		<clipPath clipPathUnits="userSpaceOnUse" id="cp1">
			<path d="m10 0h440c5.52 0 10 4.48 10 10v230c0 5.52-4.48 10-10 10h-440c-5.52 0-10-4.48-10-10v-230c0-5.52 4.48-10 10-10z"/>
		</clipPath>
		<radialGradient id="g1" cx="0" cy="0" r="1" gradientUnits="userSpaceOnUse" gradientTransform="matrix(-243.709,0,0,-243.709,277.022,134.583)">
			<stop offset="0" stop-color="#42e8e0"/>
			<stop offset=".031" stop-color="#42e8e0"/>
			<stop offset=".176" stop-color="#308ba7"/>
			<stop offset=".326" stop-color="#265587"/>
			<stop offset=".48" stop-color="#201a6c"/>
			<stop offset=".64" stop-color="#160e5a"/>
			<stop offset=".808" stop-color="#11074f"/>
			<stop offset="1" stop-color="#0f054c"/>
		</radialGradient>
		<radialGradient id="g2" cx="0" cy="0" r="1" gradientUnits="userSpaceOnUse" gradientTransform="matrix(-358.736,0,0,-358.736,470.533,9.63)">
			<stop offset="0" stop-color="#ff2c9c"/>
			<stop offset=".03" stop-color="#f62f9f"/>
			<stop offset=".202" stop-color="#c63eb0"/>
			<stop offset=".374" stop-color="#9e4bbe"/>
			<stop offset=".541" stop-color="#7f54c9"/>
			<stop offset=".704" stop-color="#695bd1"/>
			<stop offset=".859" stop-color="#5c60d5"/>
			<stop offset="1" stop-color="#5761d7"/>
		</radialGradient>
		<linearGradient id="g3" x2="1" gradientUnits="userSpaceOnUse" gradientTransform="matrix(113.539,0,0,63.994,159.716,102.67)">
			<stop offset="0" stop-color="#5761d7"/>
			<stop offset=".178" stop-color="#5c66d9"/>
			<stop offset=".388" stop-color="#6a73df"/>
			<stop offset=".613" stop-color="#8289e8"/>
			<stop offset=".849" stop-color="#a3a7f5"/>
			<stop offset="1" stop-color="#bcbeff"/>
		</linearGradient>
		<linearGradient id="g4" x2="1" gradientUnits="userSpaceOnUse" gradientTransform="matrix(113.599,0,0,65.632,197.865,98.884)">
			<stop offset="0" stop-color="#c0bff6"/>
			<stop offset=".294" stop-color="#c5c4f7"/>
			<stop offset=".64" stop-color="#d3d2f9"/>
			<stop offset="1" stop-color="#e9e9fd"/>
		</linearGradient>
		<linearGradient id="g5" x2="1" gradientUnits="userSpaceOnUse" gradientTransform="matrix(29.078,0,0,16.829,190.495,90.143)">
			<stop offset="0" stop-color="#c0bff6"/>
			<stop offset=".294" stop-color="#c5c4f7"/>
			<stop offset=".64" stop-color="#d3d2f9"/>
			<stop offset="1" stop-color="#e9e9fd"/>
		</linearGradient>
		<linearGradient id="g6" x2="1" gradientUnits="userSpaceOnUse" gradientTransform="matrix(80.392,0,0,95.335,192.768,84.903)">
			<stop offset="0" stop-color="#c0bff6"/>
			<stop offset=".294" stop-color="#c5c4f7"/>
			<stop offset=".64" stop-color="#d3d2f9"/>
			<stop offset="1" stop-color="#e9e9fd"/>
		</linearGradient>
		<linearGradient id="g7" x2="1" gradientUnits="userSpaceOnUse" gradientTransform="matrix(13.804,0,0,54.072,192.769,105.52)">
			<stop offset="0" stop-color="#5761d7"/>
			<stop offset=".178" stop-color="#5c66d9"/>
			<stop offset=".388" stop-color="#6a73df"/>
			<stop offset=".613" stop-color="#8289e8"/>
			<stop offset=".849" stop-color="#a3a7f5"/>
			<stop offset="1" stop-color="#bcbeff"/>
		</linearGradient>
		<linearGradient id="g8" x2="1" gradientUnits="userSpaceOnUse" gradientTransform="matrix(-113.538,0,0,-63.993,442.403,102.67)">
			<stop offset="0" stop-color="#5761d7"/>
			<stop offset=".178" stop-color="#5c66d9"/>
			<stop offset=".388" stop-color="#6a73df"/>
			<stop offset=".613" stop-color="#8289e8"/>
			<stop offset=".849" stop-color="#a3a7f5"/>
			<stop offset="1" stop-color="#bcbeff"/>
		</linearGradient>
		<linearGradient id="g9" x2="1" gradientUnits="userSpaceOnUse" gradientTransform="matrix(-113.599,0,0,-65.667,404.254,98.884)">
			<stop offset="0" stop-color="#c0bff6"/>
			<stop offset=".294" stop-color="#c5c4f7"/>
			<stop offset=".64" stop-color="#d3d2f9"/>
			<stop offset="1" stop-color="#e9e9fd"/>
		</linearGradient>
		<linearGradient id="g10" x2="1" gradientUnits="userSpaceOnUse" gradientTransform="matrix(-29.078,0,0,-16.829,411.625,90.143)">
			<stop offset="0" stop-color="#c0bff6"/>
			<stop offset=".294" stop-color="#c5c4f7"/>
			<stop offset=".64" stop-color="#d3d2f9"/>
			<stop offset="1" stop-color="#e9e9fd"/>
		</linearGradient>
		<linearGradient id="g11" x2="1" gradientUnits="userSpaceOnUse" gradientTransform="matrix(-80.391,0,0,-95.309,409.351,84.903)">
			<stop offset="0" stop-color="#c0bff6"/>
			<stop offset=".294" stop-color="#c5c4f7"/>
			<stop offset=".64" stop-color="#d3d2f9"/>
			<stop offset="1" stop-color="#e9e9fd"/>
		</linearGradient>
		<linearGradient id="g12" x2="1" gradientUnits="userSpaceOnUse" gradientTransform="matrix(-13.804,0,0,-54.072,409.35,105.52)">
			<stop offset="0" stop-color="#5761d7"/>
			<stop offset=".178" stop-color="#5c66d9"/>
			<stop offset=".388" stop-color="#6a73df"/>
			<stop offset=".613" stop-color="#8289e8"/>
			<stop offset=".849" stop-color="#a3a7f5"/>
			<stop offset="1" stop-color="#bcbeff"/>
		</linearGradient>
		<linearGradient id="g13" x2="1" gradientUnits="userSpaceOnUse" gradientTransform="matrix(0,-44.279,49.028,0,333.458,161.716)">
			<stop offset="0" stop-color="#c0bff6"/>
			<stop offset=".294" stop-color="#c5c4f7"/>
			<stop offset=".64" stop-color="#d3d2f9"/>
			<stop offset="1" stop-color="#e9e9fd"/>
		</linearGradient>
		<linearGradient id="g14" x2="1" gradientUnits="userSpaceOnUse" gradientTransform="matrix(0,-44.279,49.028,0,333.458,125)">
			<stop offset="0" stop-color="#c0bff6"/>
			<stop offset=".294" stop-color="#c5c4f7"/>
			<stop offset=".64" stop-color="#d3d2f9"/>
			<stop offset="1" stop-color="#e9e9fd"/>
		</linearGradient>
		<radialGradient id="g15" cx="0" cy="0" r="1" gradientUnits="userSpaceOnUse" gradientTransform="matrix(1.68,0,0,1.68,321.685,77.073)">
			<stop offset="0" stop-color="#ff2c9c"/>
			<stop offset=".03" stop-color="#f62f9f"/>
			<stop offset=".202" stop-color="#c63eb0"/>
			<stop offset=".374" stop-color="#9e4bbe"/>
			<stop offset=".541" stop-color="#7f54c9"/>
			<stop offset=".704" stop-color="#695bd1"/>
			<stop offset=".859" stop-color="#5c60d5"/>
			<stop offset="1" stop-color="#5761d7"/>
		</radialGradient>
		<linearGradient id="g16" x2="1" gradientUnits="userSpaceOnUse" gradientTransform="matrix(81.813,0,0,97.065,315.883,147.308)">
			<stop offset="0" stop-color="#c0bff6"/>
			<stop offset=".294" stop-color="#c5c4f7"/>
			<stop offset=".64" stop-color="#d3d2f9"/>
			<stop offset="1" stop-color="#e9e9fd"/>
		</linearGradient>
		<linearGradient id="g17" x2="1" gradientUnits="userSpaceOnUse" gradientTransform="matrix(14.048,0,0,55.129,315.884,168.29)">
			<stop offset="0" stop-color="#5761d7"/>
			<stop offset=".178" stop-color="#5c66d9"/>
			<stop offset=".388" stop-color="#6a73df"/>
			<stop offset=".613" stop-color="#8289e8"/>
			<stop offset=".849" stop-color="#a3a7f5"/>
			<stop offset="1" stop-color="#bcbeff"/>
		</linearGradient>
		<linearGradient id="g18" x2="1" gradientUnits="userSpaceOnUse" gradientTransform="matrix(115.546,0,0,65.082,326.844,191.875)">
			<stop offset="0" stop-color="#5761d7"/>
			<stop offset=".178" stop-color="#5c66d9"/>
			<stop offset=".388" stop-color="#6a73df"/>
			<stop offset=".613" stop-color="#8289e8"/>
			<stop offset=".849" stop-color="#a3a7f5"/>
			<stop offset="1" stop-color="#bcbeff"/>
		</linearGradient>
		<linearGradient id="g19" x2="1" gradientUnits="userSpaceOnUse" gradientTransform="matrix(115.607,0,0,66.709,365.668,188.022)">
			<stop offset="0" stop-color="#c0bff6"/>
			<stop offset=".294" stop-color="#c5c4f7"/>
			<stop offset=".64" stop-color="#d3d2f9"/>
			<stop offset="1" stop-color="#e9e9fd"/>
		</linearGradient>
		<linearGradient id="g20" x2="1" gradientUnits="userSpaceOnUse" gradientTransform="matrix(29.592,0,0,17.052,385.246,194.585)">
			<stop offset="0" stop-color="#c0bff6"/>
			<stop offset=".294" stop-color="#c5c4f7"/>
			<stop offset=".64" stop-color="#d3d2f9"/>
			<stop offset="1" stop-color="#e9e9fd"/>
		</linearGradient>
		<linearGradient id="g21" x2="1" gradientUnits="userSpaceOnUse" gradientTransform="matrix(115.608,0,0,66.675,321.499,162.398)">
			<stop offset="0" stop-color="#c0bff6"/>
			<stop offset=".294" stop-color="#c5c4f7"/>
			<stop offset=".64" stop-color="#d3d2f9"/>
			<stop offset="1" stop-color="#e9e9fd"/>
		</linearGradient>
		<linearGradient id="g22" x2="1" gradientUnits="userSpaceOnUse" gradientTransform="matrix(29.592,0,0,16.991,313.891,153.912)">
			<stop offset="0" stop-color="#c0bff6"/>
			<stop offset=".294" stop-color="#c5c4f7"/>
			<stop offset=".64" stop-color="#d3d2f9"/>
			<stop offset="1" stop-color="#e9e9fd"/>
		</linearGradient>
		<linearGradient id="g23" x2="1" gradientUnits="userSpaceOnUse" gradientTransform="matrix(108.914,0,0,64.207,163.457,199.077)">
			<stop offset="0" stop-color="#5761d7"/>
			<stop offset=".141" stop-color="#5c60d5"/>
			<stop offset=".296" stop-color="#695bd1"/>
			<stop offset=".459" stop-color="#7f54c9"/>
			<stop offset=".626" stop-color="#9e4bbe"/>
			<stop offset=".798" stop-color="#c63eb0"/>
			<stop offset=".97" stop-color="#f62f9f"/>
			<stop offset="1" stop-color="#ff2c9c"/>
		</linearGradient>
		<linearGradient id="g24" x2="1" gradientUnits="userSpaceOnUse" gradientTransform="matrix(-81.812,0,0,-97.063,286.236,147.308)">
			<stop offset="0" stop-color="#c0bff6"/>
			<stop offset=".294" stop-color="#c5c4f7"/>
			<stop offset=".64" stop-color="#d3d2f9"/>
			<stop offset="1" stop-color="#e9e9fd"/>
		</linearGradient>
		<linearGradient id="g25" x2="1" gradientUnits="userSpaceOnUse" gradientTransform="matrix(-14.048,0,0,-55.129,286.236,168.29)">
			<stop offset="0" stop-color="#5761d7"/>
			<stop offset=".178" stop-color="#5c66d9"/>
			<stop offset=".388" stop-color="#6a73df"/>
			<stop offset=".613" stop-color="#8289e8"/>
			<stop offset=".849" stop-color="#a3a7f5"/>
			<stop offset="1" stop-color="#bcbeff"/>
		</linearGradient>
		<linearGradient id="g26" x2="1" gradientUnits="userSpaceOnUse" gradientTransform="matrix(-115.546,0,0,-65.164,275.275,191.875)">
			<stop offset="0" stop-color="#5761d7"/>
			<stop offset=".178" stop-color="#5c66d9"/>
			<stop offset=".388" stop-color="#6a73df"/>
			<stop offset=".613" stop-color="#8289e8"/>
			<stop offset=".849" stop-color="#a3a7f5"/>
			<stop offset="1" stop-color="#bcbeff"/>
		</linearGradient>
		<linearGradient id="g27" x2="1" gradientUnits="userSpaceOnUse" gradientTransform="matrix(-115.607,0,0,-66.709,236.451,188.022)">
			<stop offset="0" stop-color="#c0bff6"/>
			<stop offset=".294" stop-color="#c5c4f7"/>
			<stop offset=".64" stop-color="#d3d2f9"/>
			<stop offset="1" stop-color="#e9e9fd"/>
		</linearGradient>
		<linearGradient id="g28" x2="1" gradientUnits="userSpaceOnUse" gradientTransform="matrix(-29.593,0,0,-17.053,216.874,194.585)">
			<stop offset="0" stop-color="#c0bff6"/>
			<stop offset=".294" stop-color="#c5c4f7"/>
			<stop offset=".64" stop-color="#d3d2f9"/>
			<stop offset="1" stop-color="#e9e9fd"/>
		</linearGradient>
		<linearGradient id="g29" x2="1" gradientUnits="userSpaceOnUse" gradientTransform="matrix(-115.607,0,0,-66.674,280.62,162.398)">
			<stop offset="0" stop-color="#c0bff6"/>
			<stop offset=".294" stop-color="#c5c4f7"/>
			<stop offset=".64" stop-color="#d3d2f9"/>
			<stop offset="1" stop-color="#e9e9fd"/>
		</linearGradient>
		<linearGradient id="g30" x2="1" gradientUnits="userSpaceOnUse" gradientTransform="matrix(-29.592,0,0,-16.991,288.229,153.912)">
			<stop offset="0" stop-color="#c0bff6"/>
			<stop offset=".294" stop-color="#c5c4f7"/>
			<stop offset=".64" stop-color="#d3d2f9"/>
			<stop offset="1" stop-color="#e9e9fd"/>
		</linearGradient>
		<linearGradient id="g31" x2="1" gradientUnits="userSpaceOnUse" gradientTransform="matrix(0,-162.673,94.226,0,301.06,106.673)">
			<stop offset="0" stop-color="#42e8e0" stop-opacity="1"/>
			<stop offset=".105" stop-color="#37b6bf" stop-opacity="1"/>
			<stop offset=".22" stop-color="#2c87a1" stop-opacity="1"/>
			<stop offset=".338" stop-color="#235f87" stop-opacity=".91"/>
			<stop offset=".459" stop-color="#1c3f72" stop-opacity=".74"/>
			<stop offset=".583" stop-color="#162561" stop-opacity=".69"/>
			<stop offset=".71" stop-color="#121355" stop-opacity=".6"/>
			<stop offset=".846" stop-color="#10084e" stop-opacity="0"/>
			<stop offset="1" stop-color="#0f054c" stop-opacity="0"/>
		</linearGradient>
	</defs>
	<style>
		.s0 { fill: url(#g1) } 
		.s1 { opacity: .8;fill: url(#g2) } 
		.s2 { opacity: .1;fill: #42e8e0 } 
		.s3 { fill: #0f054c } 
		.s4 { fill: #080344 } 
		.s5 { fill: #42e8e0 } 
		.s6 { fill: url(#g3) } 
		.s7 { fill: url(#g4) } 
		.s8 { fill: #ffffff } 
		.s9 { fill: #2842a2 } 
		.s10 { fill: #adb1f2 } 
		.s11 { fill: #9198db } 
		.s12 { fill: #24126a } 
		.s13 { fill: url(#g5) } 
		.s14 { fill: url(#g6) } 
		.s15 { fill: url(#g7) } 
		.s16 { fill: #453c9e } 
		.s17 { fill: url(#g8) } 
		.s18 { fill: url(#g9) } 
		.s19 { fill: url(#g10) } 
		.s20 { fill: url(#g11) } 
		.s21 { fill: url(#g12) } 
		.s22 { fill: #bcbeff } 
		.s23 { fill: url(#g13) } 
		.s24 { opacity: .5;fill: #453c9e } 
		.s25 { opacity: .4;fill: #42e8e0 } 
		.s26 { fill: url(#g14) } 
		.s27 { opacity: .8;fill: #ff2c9c } 
		.s28 { opacity: .8;fill: url(#g15) } 
		.s29 { fill: url(#g16) } 
		.s30 { fill: url(#g17) } 
		.s31 { fill: url(#g18) } 
		.s32 { fill: url(#g19) } 
		.s33 { fill: url(#g20) } 
		.s34 { fill: url(#g21) } 
		.s35 { fill: url(#g22) } 
		.s36 { fill: url(#g23) } 
		.s37 { fill: url(#g24) } 
		.s38 { fill: url(#g25) } 
		.s39 { fill: url(#g26) } 
		.s40 { fill: url(#g27) } 
		.s41 { fill: url(#g28) } 
		.s42 { fill: url(#g29) } 
		.s43 { fill: url(#g30) } 
		.s44 { opacity: .5;fill: url(#g31) } 
	</style>
	<g id="Clip-Path" clip-path="url(#cp1)">
		<g>
			<path class="s0" d="m10 0h440c5.5 0 10 4.5 10 10v230c0 5.5-4.5 10-10 10h-440c-5.5 0-10-4.5-10-10v-230c0-5.5 4.5-10 10-10z"/>
			<path fill-rule="evenodd" class="s1" d="m446.4-32.4c-1 0.6-2.7 0.6-3.7 0h-0.1l-56.7 32.8v40.8l74-42.9v0.7l-87.8 50.9v45.2l-47.4 27.5 8.4 4.8 46.1-26.7-0.1-0.3 43.8-25.4v-5.6l8.9-5.1v-16l28.1-16.2v0.7l-27.5 15.9v15.2l11.4-6.5c-0.8-0.7-0.7-1.5 0.2-2 1-0.6 2.7-0.6 3.7 0 0.9 0.6 0.9 1.6 0 2.1-0.9 0.6-2.4 0.6-3.4 0.2l-20.8 12v5.6l-43.5 25.3h20.2l59.7-34.6v0.6l-58.5 34h58.5v0.6h-80.3l-45.9 26.6 8.6 5 33.3-19.3h84.2v0.5h-59.7l18.2 10.5h41.5v0.6h-41.7l-19.2-11.1h-23.2l-32.9 19.1 7.7 4.5 29.2-16.9h11.8l23.9 14h44.6v0.6h-44.7l-23.9-13.8h-11.4l-21.2 12.3h10.6l10.3-6h8l17.8 10.3c1-0.4 2.4-0.3 3.3 0.2 1 0.6 1 1.6 0 2.1-1 0.6-2.7 0.6-3.7 0-1-0.5-1-1.4-0.2-1.9l-17.4-10.1h-7.7l-10.3 6h-11.7l-6.6 3.8 10.7 6.3h15.9l19.7 11.4c0.9-0.4 2.4-0.4 3.3 0.1 1 0.6 1 1.6 0 2.2-1 0.5-2.7 0.5-3.7 0-0.9-0.6-1-1.4-0.2-2l-19.2-11.2h-14.7l5.1 3-7.9 4.6 21.3 12.3h22.4l23.6-13.7c-0.7-0.6-0.7-1.5 0.2-2 1-0.6 2.7-0.6 3.7 0 1 0.6 1 1.6 0 2.2-0.9 0.5-2.3 0.5-3.3 0.1l-12.2 7.1h44.1v0.6l-0.2-0.1h-45l-10.7 6.3h-21.7l8.8 5.1h50.7l13 7.5h5v0.6h-4l4 2.3v0.6l-18.2-10.5h-50.6l-31.5-18.3-14.7 8.5 36.6 21.2h39.6l38.9 22.6v0.6l-39-22.6h-38.3l48.4 28.1v22.5l28.9 16.8v0.7l-29.6-17.2v-22.4l-86.1-50-12.7 7.3 51.8 30v45.2l29.2 16.9h-1.1l-28.7-16.5v-45.2l-51.7-30.1-7.9 4.6 38.4 22.2v53l18.5 10.6v1.4h-0.6v-1l-18.5-10.7v-53l-38.3-22.2-10.6 6.1 29.3 17.1v63.8h-0.5v-27.1l-14.7 8.5v18.6h-0.6v-18.9l15.3-8.9v-15.7l-19.4 11.3c0.7 0.5 0.6 1.4-0.3 1.9-1 0.5-2.7 0.5-3.7 0-1-0.6-1-1.6 0-2.2 1-0.5 2.5-0.6 3.4-0.1l20-11.5v-19.4l-29.3-17-9.4 5.4 14.3 8.3v12.2l-3.6 2v6.3l-25.8 14.9v10.5l-20.9 12.1c0.8 0.6 0.7 1.5-0.2 2-1 0.6-2.7 0.6-3.7 0-1-0.6-1-1.6 0-2.1 0.9-0.6 2.4-0.6 3.4-0.2l20.9-12.1v-10.5l25.7-15v-5.5l-43.2 25.1c0.6 0.5 0.6 1.3-0.3 1.8-1 0.6-2.7 0.6-3.7 0-1-0.5-1-1.5 0-2.1 1-0.5 2.4-0.6 3.4-0.1l34.6-20.1h-17.2l-19.9 11.6c0.7 0.6 0.6 1.5-0.3 2-0.9 0.5-2.6 0.5-3.6 0-1-0.6-1-1.6 0-2.2 0.9-0.5 2.3-0.5 3.3-0.1l20.3-11.8h18.5l11.8-6.8v-11.4l-14.3-8.3-2.9 1.6-3.7-2.1-59.8 34.7h-16.4q-0.1 0.3-0.8 0.7c-0.9 0.6-2.7 0.6-3.6 0-1-0.6-1-1.6 0-2.1 0.9-0.6 2.7-0.6 3.6 0 0.5 0.1 0.7 0.5 0.8 0.7h16.1l59.6-34.5-9.2-5.3-49.7 28.9c0.7 0.7 0.7 1.5-0.2 2-1 0.5-2.7 0.5-3.7 0-1-0.6-1-1.6 0-2.2 0.9-0.5 2.3-0.5 3.3-0.1l49.8-28.9-9.5-5.5-70.3 40.8v34.1l20.2 11.7h-1.1l-12.1-7-12.1 7h-1.1l12.6-7.3-7-4.1v-26.8l-11.9 6.9v16.7l-24.2 14c0.2 0.2 0.3 0.5 0.4 0.6h-5c0.1-0.2 0.3-0.5 0.7-0.7 0.9-0.6 2.4-0.6 3.3-0.2l24.2-14v-16.7l12.5-7.3v-7.3l70.3-40.7-10.4-6-136.3 79.1v13.9h-0.6v-14.3l136.4-79-8.4-4.9-70.3 40.8h-51.2l-22.5 13h0.2v13.9l-25.6 14.8c0.7 0.6 0.7 1.5-0.2 2-1 0.6-2.7 0.6-3.7 0-1-0.6-1-1.6 0-2.1 0.9-0.6 2.4-0.6 3.3-0.2l25.6-14.8v-13.3l-38.8 22.4h-85.9l-16.4-9.5v-0.6l16.5 9.6h85.6l61.7-35.9h51.2l69.9-40.5-7.4-4.2-66.4 38.5h-58.8l-28.6 16.6c0.7 0.5 0.7 1.4-0.2 1.9-1 0.6-2.7 0.6-3.7 0-1-0.5-1-1.5 0-2.1 0.9-0.6 2.4-0.6 3.3-0.2l28.9-16.8h58.8l9.8-5.7h-78.4l-61.9-35.9c-1 0.4-2.5 0.3-3.4-0.2-1-0.6-1-1.6 0-2.1 1-0.6 2.7-0.6 3.7 0 0.9 0.5 1 1.4 0.2 1.9l61.5 35.6h79.3l24.8-14.3-9.7-5.7h-17.3l-16.2-9.3c-0.9 0.4-2.4 0.3-3.3-0.2-1-0.6-1-1.5 0-2.1 1-0.6 2.7-0.6 3.7 0 0.9 0.6 0.9 1.4 0.2 1.9l15.7 9.4h16.1l-37.7-21.8h-34.8l-19.5 11.2c0.8 0.6 0.7 1.5-0.2 2-1 0.6-2.7 0.6-3.7 0-1-0.6-1-1.6 0-2.1 0.9-0.6 2.4-0.6 3.4-0.2l19.7-11.5h35.2l48.8 28.3 20.8-12.1h-11.5l-9.2-5.3c-1 0.4-2.4 0.4-3.3-0.2-1-0.5-1-1.5 0-2.1 1-0.6 2.7-0.6 3.6 0 0.9 0.5 1.1 1.3 0.4 1.9l8.8 5.1h12.3l8.2-4.8-17.4-10.1 5.5-3.2-30-17.3h-10l-12 6.8c0.8 0.6 0.7 1.5-0.2 2-1 0.6-2.7 0.6-3.7 0-1-0.6-1-1.5 0-2.1 0.9-0.6 2.4-0.6 3.4-0.2l12.3-7.1h10.4l21.8 12.5v-11.5l-20.5-11.8c-0.9 0.4-2.4 0.3-3.3-0.2-1-0.6-1-1.6 0-2.1 1-0.6 2.7-0.6 3.7 0 0.9 0.5 1 1.4 0.2 1.9l20.4 11.8v12.3l8.1 4.6 28.3-16.4-13.2-7.6h-17l-26.8-15.6h-20.4l-28.5 16.5c0.8 0.6 0.7 1.5-0.2 2-1 0.5-2.7 0.5-3.7 0-1-0.6-1-1.6 0-2.2 0.9-0.5 2.4-0.5 3.4-0.1l28.7-16.7h20.8l26.9 15.6h15.8l-78.8-45.7h-55.6l-35.2-20.3-0.1-0.1v-31.2c-0.7 0-1.5-0.1-2.1-0.4-0.9-0.6-0.9-1.6 0-2.2 1-0.6 2.7-0.6 3.7 0 1 0.6 1 1.6 0 2.2-0.2 0.1-0.6 0.2-1 0.3v31l34.8 20.2h55.7l93.4 54.1 10.6-6.2-94.3-54.7h-0.1v-32.7l-32.3-18.7c-1 0.4-2.4 0.3-3.3-0.2-1-0.5-1-1.5 0-2.1 0.9-0.6 2.7-0.6 3.6 0 0.9 0.6 1 1.4 0.3 2l32.1 18.6 0.1 0.1v32.6l94.4 54.8 11.1-6.5-55.2-32-0.2-0.1v-28.1l95-55.2c-0.7-0.5-0.6-1.4 0.3-1.9 1-0.6 2.7-0.6 3.7 0 0.9 0.5 0.9 1.5 0 2.1-0.9 0.6-2.4 0.6-3.4 0.2l-69.8 40.5h21l37.6-21.8c-0.7-0.6-0.6-1.5 0.3-2 0.9-0.6 2.7-0.6 3.6 0 1 0.6 1 1.6 0 2.1-0.9 0.6-2.3 0.6-3.3 0.2l-38.1 22.1h-22.2l-24.1 14v27.4l44.5 25.8v-13.9l-27.4-15.9h-0.2v-14.2c-0.5 0-1.1-0.1-1.5-0.4-1-0.5-1-1.5 0-2.1 1-0.6 2.7-0.6 3.7 0 0.9 0.6 0.9 1.6 0 2.1-0.4 0.3-1 0.4-1.6 0.4v13.8l27.4 15.9h0.1v14.6l10.4 6 11.4-6.6 7 4v-30.4l-24.1-14c-1 0.4-2.5 0.4-3.4-0.1-0.9-0.6-0.9-1.6 0-2.2 1-0.5 2.7-0.5 3.7 0 0.9 0.6 1 1.4 0.3 2l24 13.9 0.1 0.1v12.4l18.1-10.5v-11.7l-39.4-22.8c-1 0.4-2.4 0.3-3.3-0.2-1-0.6-1-1.5 0-2.1 0.9-0.6 2.7-0.6 3.6 0 0.9 0.6 1 1.4 0.3 2l39.2 22.7 0.1 0.1v12.4l-18.6 10.8v18l9.9 5.7 8.3-4.8v-11l12.7-7.3c-0.7-0.6-0.7-1.5 0.2-2 1-0.5 2.7-0.5 3.7 0 1 0.6 1 1.6 0 2.2-0.9 0.6-2.4 0.6-3.3 0.1l-12.7 7.3v10.4l27.7-15.9v-24.1l-41.6-24.2h-0.1v-9.1l23.5-13.7c-0.8-0.6-0.7-1.4 0.2-1.9 1-0.6 2.7-0.6 3.7 0 1 0.6 1 1.5 0 2.1-0.9 0.6-2.4 0.6-3.3 0.2l-23.6 13.6v8.4l41.6 24.1h0.2v24.8l-36.5 21.2 7.3 4.2 47.4-27.4v-45.2l13.8-8.1v-41.5l56.7-32.9c-0.4-0.6-0.1-1.3 0.6-1.7 1-0.5 2.7-0.5 3.7 0 0.9 0.6 0.9 1.6 0 2.2zm-147.6 140.6l-68 39.5 68 39.4 68-39.4z"/>
			<path fill-rule="evenodd" class="s2" d="m459.9 37l-11.6 6.7v22.6l-107.4 62.2 6.6 3.9 55.3-32h40.3l16.7-9.8v0.9l-16.5 9.6h-40.3l-55 32 5.7 3.3 52.4-30.4h46.2l7.5-4.3v0.5l-7.3 4.2h-46.2l-7.8 4.5h61.3v0.5h-62l-19.5 11.3 7.7 4.5h13.6l12.7 7.3c0.7-0.4 1.9-0.3 2.6 0.1 0.8 0.4 0.8 1.2 0 1.6-0.7 0.5-2 0.5-2.9 0-0.7-0.4-0.8-1-0.2-1.5l-12.4-7.2h-12.7l29.7 17.2h27.4l15.3-8.9c-0.6-0.5-0.5-1.1 0.2-1.5 0.2-0.1 0.4-0.2 0.6-0.3v2.2c-0.1 0-0.2 0-0.3-0.1l-15.6 9h-27.7l-38.5-22.3-16.3 9.5h9l7.3 4.2c0.8-0.4 2-0.3 2.7 0.1 0.8 0.4 0.8 1.1 0 1.6-0.7 0.5-2 0.5-2.9 0-0.7-0.4-0.8-1-0.2-1.5l-6.9-4h-9.7l-6.5 3.7 13.4 7.7 0.3 0.2-4.3 2.4 23.6 14h8l9.3-5.4c-0.5-0.5-0.5-1.2 0.3-1.6 0.7-0.5 2-0.5 2.8 0 0.8 0.4 0.8 1.1 0 1.6-0.7 0.4-1.8 0.4-2.6 0.1l-9.7 5.7h-8.2l-17.1-9.9v9l16 9.4c0.8-0.4 1.9-0.3 2.6 0.1 0.8 0.4 0.8 1.1 0 1.6-0.7 0.5-2 0.5-2.8 0-0.8-0.4-0.8-1.1-0.3-1.6l-16-9.3v-9.7l-6.4-3.6-22.3 12.9 10.4 6h13.4l21.2 12.3h16l22.4-13c-0.6-0.5-0.5-1.1 0.2-1.5 0.8-0.5 2.1-0.5 2.9 0 0.8 0.4 0.8 1.1 0 1.6-0.8 0.4-1.8 0.4-2.6 0.1l-22.6 13.1h-16.4l-21.2-12.3h-12.5l62.1 36h43.8l2 1.1v0.5l-2-1.2h-43.9l-73.5-42.6-8.3 4.8 74.2 43 0.1 0.1v25.7l25.3 14.8c0.8-0.4 1.9-0.4 2.7 0 0.8 0.5 0.8 1.2 0 1.7-0.8 0.5-2.1 0.5-2.9 0-0.7-0.4-0.8-1.1-0.2-1.6l-25.4-14.7v-25.7l-74.3-43.1-8.7 5.1 43.5 25.2 0.1 0.1v22l-74.5 43.3h-3.4c0.8-0.5 1.8-0.5 2.6-0.1l55-31.9h-16.6l-29.6 17.2c0.5 0.5 0.5 1.2-0.3 1.6-0.7 0.5-2 0.5-2.8 0-0.8-0.4-0.8-1.2 0-1.7 0.7-0.4 1.8-0.4 2.6-0.1l29.9-17.3h17.5l19-11.1v-21.5l-35-20.3v10.9l21.3 12.6v11c0.5 0 0.9 0.2 1.3 0.4 0.8 0.4 0.8 1.1 0 1.6-0.8 0.5-2.1 0.5-2.9 0-0.8-0.4-0.8-1.1 0-1.6 0.3-0.2 0.8-0.4 1.2-0.4v-10.8l-21.6-12.5v-11.5l-8.1-4.7-8.9 5.1-0.1 0.1-5.5-3.2v23.9l19 11c0.8-0.4 1.9-0.3 2.6 0.1 0.9 0.4 0.9 1.1 0 1.6-0.7 0.5-2 0.5-2.8 0-0.7-0.4-0.8-1-0.3-1.5l-19-11v-9.7l-14.1 8.2v9.3l30.9 17.9c0.8-0.4 1.9-0.3 2.6 0.1 0.9 0.4 0.9 1.1 0 1.6-0.7 0.5-2 0.5-2.8 0-0.7-0.4-0.8-1-0.2-1.5l-30.9-17.9-0.1-0.1v-9.7l14.7-8.5v-14.2l-7.7-4.5-6.6 3.9v8.6l-10 5.9c0.6 0.4 0.5 1.1-0.2 1.5-0.8 0.5-2.1 0.5-2.9 0-0.8-0.4-0.8-1.1 0-1.6 0.8-0.4 1.8-0.4 2.6-0.1l10-5.8v-8.1l-21.7 12.6v19l32.7 18.9 0.1 0.1v7.1l-18.5 10.7c0.5 0.5 0.4 1.2-0.3 1.6-0.7 0.5-2 0.5-2.8 0-0.9-0.4-0.9-1.1 0-1.6 0.7-0.5 1.8-0.5 2.6-0.1l18.5-10.8v-6.6l-32.7-18.9-0.1-0.1v-19.5l28.8-16.7-5.8-3.4-37.3 21.7v35.5l-10.8 6.3v32.7l-0.8 0.5h-0.9l1.3-0.7v-32.2l-56.8 32.9h-0.9l68.6-39.8v-35.6l37.4-21.7-6.7-3.9-36.2 21.1v0.1l-34.5 20.1v4.3l-7.1 4.1v12.6l-51.5 29.9c0.6 0.4 0.5 1.1-0.2 1.5-0.8 0.5-2.1 0.5-2.9 0-0.8-0.4-0.8-1.1 0-1.6 0.7-0.4 1.8-0.4 2.6-0.1l51.6-29.9v-12l-8.9 5.2c0.5 0.5 0.5 1.1-0.3 1.5-0.7 0.5-2 0.5-2.8 0-0.8-0.4-0.8-1.1 0-1.6 0.7-0.4 1.8-0.4 2.6-0.1l16.5-9.6v-4.4l34.2-19.9h-15.9l-68.5 39.7v10.4l-27.2 15.8c0.6 0.5 0.5 1.1-0.2 1.5-0.7 0.5-2 0.5-2.9 0-0.8-0.4-0.8-1.1 0-1.6 0.8-0.4 1.8-0.4 2.7-0.1l27.1-15.7v-10.4l67.9-39.5h-46.3l-55.7 32.3h-65.2l-38.2-22.1c-0.7 0.4-1.9 0.3-2.6-0.1-0.8-0.4-0.8-1.2 0-1.7 0.7-0.5 2.1-0.5 2.9 0 0.7 0.4 0.8 1.1 0.2 1.6l37.9 21.5h64.9l55.7-32.2h63.7l36.2-21-6.9-3.9-26.2 15.1h-73.8l-51.7 30c0.6 0.5 0.5 1.1-0.2 1.6-0.8 0.4-2.1 0.4-2.9 0-0.8-0.5-0.8-1.2 0-1.7 0.8-0.4 1.8-0.4 2.6-0.1l52-30.1h54.6l-14.2-8.3h-38.6c-0.1 0.2-0.3 0.4-0.6 0.6-0.7 0.5-2 0.5-2.8 0-0.9-0.4-0.9-1.2 0-1.7 0.7-0.4 2-0.4 2.8 0 0.3 0.2 0.5 0.4 0.6 0.6h38.7l15.1 8.8h18.3l25.9-15-6-3.5-23 13.2h-9.2l-18.8-10.9h-56.4l-35.4-20.5c-0.8 0.3-1.9 0.2-2.6-0.2-0.9-0.4-0.9-1.1 0-1.6 0.7-0.5 2-0.5 2.8 0 0.8 0.4 0.8 1.1 0.2 1.5l35 20.4h56.6l18.7 10.9h9l16.6-9.7h-8.3l-8.1 4.7h-6.3l-14.1-8.2c-0.8 0.4-1.8 0.3-2.6-0.1-0.8-0.4-0.8-1.2 0-1.7 0.8-0.4 2.1-0.4 2.9 0 0.7 0.5 0.8 1.1 0.2 1.6l13.7 7.9h6l8.1-4.6h9.3l5.2-3.1-8.5-4.9h-12.5l-15.5-9c-0.7 0.4-1.9 0.4-2.6-0.1-0.8-0.4-0.8-1.1 0-1.6 0.7-0.5 2.1-0.5 2.9 0 0.7 0.4 0.8 1.1 0.2 1.6l15.2 8.7h11.6l-3.7-2.1-0.3-0.2 6.2-3.6-16.8-9.7h-17.6l-18.6 10.8c0.6 0.5 0.5 1.1-0.2 1.5-0.7 0.5-2 0.5-2.9 0-0.8-0.4-0.8-1.1 0-1.6 0.8-0.4 1.8-0.4 2.6-0.1l9.6-5.5h-34.8l-9.9-5.9h-19.9c-0.1 0.2-0.2 0.4-0.6 0.6-0.7 0.5-2 0.5-2.8 0-0.8-0.4-0.8-1.1 0-1.6 0.7-0.5 2-0.5 2.8 0 0.4 0.1 0.5 0.3 0.6 0.5h20.1l9.9 5.9h35.4l8.5-5h16.9l-6.9-4h-39.9l-10.2-5.9h-30.5l-14.6-8.5c-0.8 0.4-1.9 0.3-2.6-0.1-0.9-0.4-0.9-1.1 0-1.6 0.7-0.5 2-0.5 2.8 0 0.7 0.4 0.8 1.1 0.3 1.6l14 7.7h29.6l-34.3-19.8h-25.1l-10.6-6.1c-0.7 0.4-1.9 0.3-2.6-0.1-0.8-0.4-0.8-1.2 0-1.6 0.7-0.5 2-0.5 2.9 0 0.7 0.4 0.8 1 0.2 1.5l10.3 6h25.1l45.3 26.3h39.9l24.8 14.4 11.6-6.7-28.9-16.7h-31.1l-35.2-20.5c-0.7 0.4-1.9 0.3-2.6-0.1-0.8-0.4-0.8-1.1 0-1.6 0.7-0.5 2-0.5 2.9 0 0.7 0.4 0.8 1 0.2 1.5l34.9 20.3h30.2l-38-22.1-0.1-0.1v-17.6l-56.8-33.1c-0.8 0.5-1.9 0.4-2.6 0-0.9-0.5-0.9-1.2 0-1.7 0.7-0.5 2-0.5 2.8 0 0.7 0.4 0.8 1.1 0.3 1.6l56.7 32.9 0.1 0.1v17.7l67.8 39.3 9.9-5.7-40.6-23.6-0.1-0.1v-35.6l-36.2-20.9c-0.7 0.4-1.9 0.3-2.6-0.1-0.8-0.4-0.8-1.2 0-1.6 0.7-0.5 2-0.5 2.9 0 0.7 0.4 0.8 1 0.2 1.5l36 20.9 0.1 0.1v35.5l40.8 23.7 6.1-3.5-30.2-17.6v-41.6l-14.5-8.5v-15.7l-12.8-7.5c-0.7 0.4-1.9 0.4-2.6 0-0.8-0.5-0.8-1.2 0-1.7 0.7-0.5 2-0.5 2.9 0 0.7 0.4 0.8 1.1 0.2 1.6l12.8 7.4v15.8l14.5 8.4v41.7l30.2 17.5 8.3-4.8-23.1-13.5v-69.7h0.5v40.8l11.6-6.7v-22.8c-0.5 0-0.9-0.2-1.2-0.4-0.8-0.4-0.8-1.1 0-1.6 0.7-0.5 2-0.5 2.8 0 0.9 0.4 0.9 1.1 0 1.6-0.3 0.2-0.8 0.4-1.2 0.4v23.1l-12.1 7v12.3l15.3-8.9c-0.6-0.4-0.5-1 0.2-1.4 0.8-0.5 2.1-0.5 2.9 0 0.8 0.4 0.8 1.1 0 1.6-0.7 0.4-1.9 0.4-2.7 0.1l-15.7 9.2v15.2l23.1 13.4 7.4-4.2-11.3-6.5v-9.6l2.9-1.6v-4.9l20.2-11.7v-8.3l16.5-9.6c-0.6-0.5-0.5-1.1 0.2-1.6 0.7-0.4 2-0.4 2.9 0 0.8 0.5 0.8 1.2 0 1.7-0.8 0.4-1.8 0.4-2.6 0.1l-16.5 9.5v8.3l-20.2 11.7v4.4l34-19.8c-0.6-0.4-0.5-1 0.2-1.4 0.7-0.5 2-0.5 2.9 0 0.8 0.4 0.8 1.1 0 1.6-0.8 0.4-1.9 0.4-2.7 0.1l-27.3 15.8h13.7l15.8-8.9c-0.6-0.5-0.5-1.2 0.2-1.6 0.8-0.5 2.1-0.5 2.9 0 0.8 0.4 0.8 1.2 0 1.6-0.8 0.5-1.8 0.5-2.6 0.1l-16.1 9.3h-14.5l-9.3 5.4v9.1l11.2 6.4 2.2-1.2v-0.1l2.9 1.7 47-27.5h13c0.1-0.1 0.3-0.4 0.6-0.5 0.7-0.5 2-0.5 2.8 0 0.9 0.4 0.9 1.1 0 1.6-0.7 0.5-2 0.5-2.8 0-0.3-0.2-0.5-0.3-0.6-0.6h-12.7l-46.9 27.2 7.2 4.2 39.1-22.7c-0.6-0.5-0.5-1.1 0.3-1.5 0.7-0.5 2-0.5 2.8 0 0.8 0.4 0.8 1.1 0 1.6-0.7 0.4-1.8 0.4-2.6 0.1l-39.1 22.7 7.4 4.3 55.3-32.1v-26.9l-26.1-15.1h-24.1l-19-11.1c-0.7 0.4-1.9 0.3-2.6-0.1-0.8-0.4-0.8-1.1 0-1.6 0.7-0.5 2.1-0.5 2.9 0 0.7 0.4 0.8 1.1 0.2 1.6l18.7 10.8h23.1l-31.7-18.5h-0.1v-24c-0.4 0-0.9-0.1-1.2-0.3-0.8-0.4-0.8-1.1 0-1.6 0.8-0.5 2.1-0.5 2.9 0 0.8 0.4 0.8 1.1 0 1.6-0.4 0.2-0.8 0.3-1.2 0.3v23.7l52.7 30.9 32.5-18.9v-21.1l23-13.3c-0.5-0.5-0.4-1.2 0.3-1.6 0.7-0.5 2-0.5 2.8 0 0.9 0.4 0.9 1.2 0 1.6-0.7 0.5-1.7 0.5-2.6 0.1l-23 13.4v21.1l-32.5 18.9 5.4 3.1h0.1v21.2l9.3-5.4v-13.2l19-11.1c-0.5-0.5-0.4-1.1 0.3-1.5 0.7-0.5 2-0.5 2.8 0 0.9 0.4 0.9 1.1 0 1.6-0.7 0.4-1.7 0.4-2.6 0.1l-19 11v13.2l-9.8 5.7v5.7l-55.3 32.1 8.1 4.8 107.3-62.3v-22.6l12.1-7zm-146.4 76.2l-53.5 31.1 53.5 31 53.6-31z"/>
			<g style="opacity: .7">
				<path class="s3" d="m301 236.7l-154.6-89.3 154.6-89.2 154.5 89.2z"/>
			</g>
			<g style="opacity: .7">
				<path class="s3" d="m301 222.9l-130.6-75.5 130.6-75.3 130.6 75.3z"/>
			</g>
			<g style="opacity: .9">
				<path class="s4" d="m301 206.8l-102.8-59.4 102.8-59.3 102.7 59.3z"/>
			</g>
			<path fill-rule="evenodd" class="s5" d="m202.9 141.2c-1.1 0-2.2-0.4-3.2-0.9l-36.2-20.8c-0.6-0.4-0.9-0.9-0.9-1.6 0-0.6 0.3-1.2 0.9-1.5l65.4-37.8c0.1-0.1 0.3-0.1 0.3 0l0.4 0.2 38.8 22.4c0.6 0.3 0.9 0.9 0.9 1.5 0 0.7-0.3 1.3-0.9 1.6l-62.5 36c-0.8 0.5-1.9 0.9-3 0.9zm26.3-62l-65.2 37.7c-0.3 0.2-0.6 0.6-0.6 1 0 0.4 0.3 0.7 0.6 1l36.2 20.9c1.7 1 3.9 1 5.5 0l62.5-36.1c0.4-0.1 0.6-0.5 0.6-1 0-0.4-0.2-0.7-0.6-0.9z"/>
			<path class="s6" d="m273.3 90.9l-3.8 2-38.1-22.1c-0.7-0.4-1.8-0.3-2.5 0.1l-65.7 38c-0.6-0.4-3.5-1.8-3.5-1.8l1.4 3.6c0.1 0.2 0.2 0.4 0.4 0.4l40.2 23.2c0.6 0.4 1.7 0.3 2.4-0.1l67.2-38.8c0.4-0.2 0.5-0.4 0.6-0.6z"/>
			<path class="s7" d="m272.6 91.6l-68.8 39.8c-0.7 0.4-1.9 0.5-2.5 0.1l-41.2-23.8c-0.6-0.4-0.5-1 0.2-1.4l68.9-39.9c0.7-0.4 1.8-0.4 2.5 0l41.1 23.7c0.7 0.3 0.7 1-0.2 1.5z"/>
			<path class="s8" d="m272.6 91.2l-68.8 39.8c-0.7 0.4-1.9 0.5-2.5 0l-41.2-23.7c-0.2-0.2-0.3-0.2-0.4-0.4 0 0.3 0 0.7 0.4 0.8l41.2 23.8c0.6 0.4 1.8 0.3 2.5-0.1l68.8-39.8c0.5-0.4 0.8-0.7 0.6-1.1 0 0.3-0.2 0.5-0.6 0.7z"/>
			<path class="s9" d="m183 122.7v-0.7c0-0.1 0.1-0.1 0.1-0.1l2.7 1.6c0 0 0 0 0 0.1v0.8c0 0 0 0 0 0l-2.7-1.5c0 0-0.1-0.1-0.1-0.2z"/>
			<path class="s9" d="m187 125v-0.7c0-0.1 0.1-0.1 0.1-0.1l2.7 1.5c0 0 0 0.1 0 0.2v0.7c0 0.1 0 0.1 0 0.1l-2.7-1.5c0 0-0.1-0.1-0.1-0.2z"/>
			<path class="s10" d="m183.3 113.1l57.3-33q0.6-0.4 1.2 0l20.4 11.8c0.3 0.2 0.3 0.6 0 0.7l-57.3 33.1q-0.6 0.3-1.2 0l-20.4-11.8c-0.3-0.2-0.3-0.6 0-0.8z"/>
			<path class="s11" d="m183.3 113.8l0.3 0.1 57-32.9q0.6-0.4 1.2 0l20.2 11.6 0.2-0.1c0.3-0.1 0.3-0.5 0-0.7l-20.4-11.8q-0.6-0.4-1.2 0l-57.3 33c-0.3 0.3-0.3 0.7 0 0.8z"/>
			<path class="s12" d="m243.4 83l-52.8 30.4-2.6-1 53.1-30.6z"/>
			<path class="s12" d="m248.7 86.2l-46.6 26.9-2.2-1.3 46.6-26.9z"/>
			<path class="s12" d="m252.2 88.2l-54.9 31.7-2.2-1.3 54.9-31.7z"/>
			<path class="s12" d="m255.8 90.3l-54.9 31.6-2.2-1.2 54.9-31.7z"/>
			<path class="s12" d="m259.3 92.3l-54.9 31.7-2.2-1.3 54.9-31.7z"/>
			<path class="s12" d="m190.6 113.4l-2.2 1.3-2.2-1.3 2.2-1.2z"/>
			<path class="s12" d="m204.8 111.6l-11 6.2-2.2-1.2 11-6.4z"/>
			<path class="s13" d="m203.7 98.3l15.4-8.9c0.6-0.4 0.6-0.9 0-1.3l-10.5-6.1c-0.6-0.3-1.5-0.3-2.2 0l-15.4 8.9c-0.6 0.3-0.6 0.9 0 1.2l10.5 6.2c0.6 0.4 1.6 0.4 2.2 0z"/>
			<path class="s11" d="m191 91.4l15.4-8.9c0.6-0.3 1.6-0.3 2.2 0l10.5 6.1c0.2 0.1 0.4 0.3 0.4 0.4 0.2-0.3 0-0.6-0.4-0.9l-10.5-6.1c-0.6-0.3-1.5-0.3-2.2 0l-15.4 8.9c-0.4 0.3-0.6 0.6-0.4 0.9 0.1-0.2 0.1-0.2 0.4-0.4z"/>
			<path class="s14" d="m273.1 89.9l-8.7-51.7 0.7-0.3-1-0.6c-0.3-0.1-0.5-0.1-0.8 0.1l-69.6 40.2c-0.6 0.3-1 1.2-0.9 1.8l8.8 52.1c0.1 0.2 0.2 0.4 0.3 0.4l1.1 0.6 0.1-1 69.1-39.9c0.6-0.3 1-1.1 0.9-1.7z"/>
			<path class="s15" d="m194.1 79l-1.2-0.5c-0.1 0.3-0.1 0.6-0.1 0.9l8.8 52.1c0.1 0.2 0.2 0.4 0.3 0.4l1.1 0.6 0.1-1 3.5-2z"/>
			<path class="s16" d="m273.4 92.3l-69.6 40.2c-0.6 0.3-1 0.2-1.1-0.4l-8.8-52c-0.1-0.6 0.3-1.5 0.9-1.8l69.6-40.2c0.6-0.4 1-0.2 1.1 0.4l8.8 52c0.1 0.7-0.4 1.5-0.9 1.8z"/>
			<path fill-rule="evenodd" class="s5" d="m399.2 141.2c-1.1 0-2.2-0.4-3.1-0.9l-62.5-36c-0.6-0.3-0.9-0.9-0.9-1.6 0-0.6 0.3-1.2 0.9-1.5l39.1-22.6c0.1-0.1 0.3-0.1 0.4 0l65.4 37.8c0.5 0.3 0.9 0.9 0.9 1.5 0 0.7-0.4 1.2-0.9 1.6l-36.2 20.8c-0.9 0.5-2 0.9-3.1 0.9zm-26.3-62l-0.2 0.1-38.8 22.5c-0.3 0.1-0.6 0.5-0.6 0.9 0 0.5 0.3 0.8 0.6 1l62.5 36.1c1.7 1 3.9 1 5.5 0l36.3-20.9c0.3-0.2 0.5-0.6 0.5-1 0-0.4-0.2-0.7-0.5-1z"/>
			<path class="s17" d="m328.8 90.9l3.9 2 38.1-22.1c0.6-0.4 1.7-0.3 2.4 0.1l65.7 38c0.6-0.4 3.5-1.8 3.5-1.8l-1.4 3.6c-0.1 0.2-0.2 0.4-0.4 0.4l-40.1 23.2c-0.7 0.4-1.7 0.3-2.5-0.1l-67.2-38.8c-0.3-0.2-0.5-0.4-0.6-0.6z"/>
			<path class="s18" d="m329.4 91.6l68.9 39.8c0.7 0.4 1.8 0.5 2.5 0.1l41.1-23.8c0.7-0.4 0.6-1-0.2-1.4l-68.8-39.9c-0.7-0.4-1.9-0.4-2.5 0l-41.1 23.7c-0.7 0.3-0.6 1 0.1 1.5z"/>
			<path class="s8" d="m329.4 91.2l68.9 39.8c0.7 0.4 1.8 0.5 2.5 0l41.1-23.7c0.2-0.2 0.3-0.2 0.4-0.4 0.1 0.3 0 0.7-0.4 0.8l-41.1 23.8c-0.7 0.4-1.8 0.3-2.5-0.1l-68.9-39.8c-0.5-0.4-0.7-0.7-0.6-1.1 0.1 0.3 0.4 0.5 0.6 0.7z"/>
			<path class="s9" d="m419.1 122.7v-0.7c0-0.1 0-0.1 0-0.1l-2.7 1.6c-0.1 0-0.1 0-0.1 0.1v0.8c0 0 0.1 0 0.1 0l2.7-1.5c0 0 0-0.1 0-0.2z"/>
			<path class="s9" d="m415.1 125v-0.7c0-0.1 0-0.1 0-0.1l-2.7 1.5c-0.1 0-0.1 0.1-0.1 0.2v0.7c0 0.1 0.1 0.1 0.1 0.1l2.7-1.5c0 0 0-0.1 0-0.2z"/>
			<path class="s10" d="m418.8 113.1l-57.2-33q-0.7-0.4-1.3 0l-20.4 11.8c-0.3 0.2-0.3 0.6 0 0.7l57.2 33.1q0.6 0.3 1.2 0l20.4-11.8c0.4-0.2 0.4-0.6 0.1-0.8z"/>
			<path class="s11" d="m418.8 113.8l-0.2 0.1-57-32.9q-0.7-0.3-1.3 0l-20.1 11.7-0.3-0.1c-0.3-0.1-0.3-0.5 0-0.7l20.4-11.8q0.6-0.4 1.3 0l57.2 33c0.3 0.2 0.3 0.6 0 0.7z"/>
			<path class="s12" d="m358.8 83l52.8 30.4 2.6-1-53.2-30.6z"/>
			<path class="s12" d="m353.4 86.2l46.7 26.9 2.2-1.3-46.7-26.9z"/>
			<path class="s12" d="m349.9 88.2l54.9 31.7 2.2-1.3-54.9-31.7z"/>
			<path class="s12" d="m346.3 90.3l54.9 31.6 2.2-1.2-54.9-31.7z"/>
			<path class="s12" d="m342.8 92.3l54.9 31.7 2.2-1.3-54.9-31.7z"/>
			<path class="s12" d="m411.6 113.4l2.2 1.3 2.2-1.3-2.2-1.2z"/>
			<path class="s12" d="m397.4 111.6l10.9 6.2 2.2-1.2-11-6.4z"/>
			<path class="s19" d="m398.4 98.3l-15.4-8.9c-0.6-0.4-0.6-0.9 0-1.3l10.5-6.1c0.6-0.3 1.6-0.3 2.2 0l15.5 8.9c0.5 0.3 0.5 0.9 0 1.2l-10.6 6.2c-0.6 0.4-1.5 0.4-2.2 0z"/>
			<path class="s11" d="m411.1 91.4l-15.4-8.9c-0.5-0.3-1.5-0.3-2.2 0l-10.5 6.1c-0.2 0.1-0.3 0.3-0.4 0.4-0.2-0.3 0-0.6 0.4-0.9l10.5-6.1c0.6-0.3 1.6-0.3 2.2 0l15.4 8.9c0.5 0.3 0.6 0.6 0.5 0.9-0.1-0.2-0.2-0.2-0.5-0.4z"/>
			<path class="s20" d="m329 89.9l8.7-51.6-0.7-0.3 1.1-0.6c0.2-0.2 0.5-0.2 0.8 0.1l69.6 40.2c0.5 0.3 0.9 1.1 0.9 1.8l-8.9 52c0 0.3-0.1 0.5-0.3 0.5l-1 0.6-0.2-1h0.1l-69.2-40c-0.6-0.3-1.1-1.1-0.9-1.7z"/>
			<path class="s21" d="m408.1 79l1.1-0.5c0.2 0.3 0.2 0.6 0.2 0.9l-8.9 52.1c0 0.2-0.1 0.4-0.3 0.4l-1 0.6-0.2-1h0.1l-3.5-2z"/>
			<path class="s16" d="m328.8 92.3l69.5 40.2c0.6 0.3 1 0.2 1.1-0.4l8.8-52c0.1-0.6-0.3-1.5-0.9-1.8l-69.6-40.2c-0.5-0.4-0.9-0.2-1 0.4l-8.8 52c-0.1 0.7 0.3 1.5 0.9 1.8z"/>
			<path class="s22" d="m301 153.6l-64.7-37.4 64.7-37.4 64.9 37.4z"/>
			<path class="s16" d="m301 143.4l-47-27.2 47-27.2 47.2 27.2z"/>
			<path class="s8" d="m301 90.8l45.5 26.3 1.7-0.9-47.2-27.2-47 27.2 1.6 0.9z"/>
			<path class="s23" d="m365.9 116.2v21.2l-64.9 37.4v-21.2z"/>
			<path class="s12" d="m236.3 116.2v21.2l64.7 37.4v-21.2z"/>
			<g style="opacity: .5">
				<path class="s16" d="m240.7 125.7v6.7l56 32.3v-6.7z"/>
			</g>
			<path class="s8" d="m301 152.4l-63.7-36.9-1 0.7 64.7 37.4 64.9-37.4-1.1-0.7z"/>
			<path class="s16" d="m356.2 131v3.9l-45.4 26.2v-3.9z"/>
			<path class="s24" d="m236.3 116.2v21.2l64.7 37.4v-21.2z"/>
			<path class="s5" d="m282.2 152.5l-11.8-6.8v1.4l11.8 6.8z"/>
			<path class="s5" d="m268.7 144.8l-3.2-1.9v1.4l3.2 1.8z"/>
			<path class="s5" d="m253.8 136.1l-6.4-3.7v1.4l6.4 3.8z"/>
			<path class="s5" d="m259.7 139.5l-4.7-2.7v1.4l4.7 2.8z"/>
			<path class="s5" d="m264.2 142.1l-3.2-1.8v1.4l3.2 1.8z"/>
			<path class="s5" d="m301.1 98.3l-2-1.2 2-1.1 2 1.1z"/>
			<path class="s2" d="m305.3 100.7l-2.2-1.1 2.2-1.3 2 1.3z"/>
			<path class="s25" d="m309.3 103.1l-2-1.2 2-1.2 2.1 1.2z"/>
			<path class="s5" d="m313.5 105.4l-2.1-1.1 2.1-1.2 2 1.2z"/>
			<path class="s25" d="m317.6 107.8l-2.1-1.1 2.1-1.3 2 1.3z"/>
			<path class="s5" d="m321.7 110.2l-2.1-1.2 2.1-1.2 2.1 1.2z"/>
			<path class="s5" d="m325.8 112.6l-2-1.2 2-1.2 2.1 1.2z"/>
			<path class="s5" d="m329.9 115l-2-1.2 2-1.2 2.1 1.2z"/>
			<path class="s2" d="m334.1 117.3l-2.1-1.2 2.1-1.1 2 1.1z"/>
			<path class="s5" d="m297 100.7l-2.1-1.1 2.1-1.3 2.1 1.3z"/>
			<path class="s5" d="m301.1 103.1l-2-1.2 2-1.2 2 1.2z"/>
			<path class="s5" d="m305.2 105.4l-2.1-1.1 2.1-1.2 2.1 1.2z"/>
			<path class="s5" d="m309.3 107.9l-2-1.2 2-1.3 2.1 1.3z"/>
			<path class="s5" d="m313.4 110.2l-2-1.2 2-1.1 2.1 1.1z"/>
			<path class="s5" d="m317.6 112.6l-2.1-1.2 2.1-1.2 2 1.2z"/>
			<path class="s5" d="m321.7 115l-2.1-1.2 2.1-1.2 2 1.2z"/>
			<path class="s5" d="m325.8 117.3l-2.1-1.1 2.1-1.2 2.1 1.2z"/>
			<path class="s5" d="m329.9 119.7l-2-1.1 2-1.3 2 1.3z"/>
			<path class="s5" d="m292.9 103.1l-2.1-1.2 2.1-1.2 2 1.2z"/>
			<path class="s5" d="m296.9 105.5l-2-1.2 2-1.2 2.2 1.2z"/>
			<path class="s5" d="m301.1 107.9l-2-1.2 2-1.2 2 1.2z"/>
			<path class="s2" d="m305.2 110.2l-2.1-1.2 2.1-1.1 2 1.1z"/>
			<path class="s25" d="m309.3 112.6l-2.1-1.2 2.1-1.2 2.1 1.2z"/>
			<path class="s25" d="m313.4 115l-2-1.2 2-1.2 2.1 1.2z"/>
			<path class="s5" d="m317.6 117.3l-2.1-1.1 2.1-1.2 2 1.2z"/>
			<path class="s5" d="m321.7 119.7l-2.1-1.1 2.1-1.3 2 1.3z"/>
			<path class="s5" d="m325.8 122.1l-2.1-1.2 2.1-1.2 2.1 1.2z"/>
			<path class="s25" d="m288.7 105.5l-2-1.2 2-1.1 2.1 1.1z"/>
			<path class="s25" d="m292.9 107.9l-2.1-1.2 2.1-1.2 2 1.2z"/>
			<path class="s2" d="m296.9 110.2l-2-1.2 2-1.1 2.1 1.1z"/>
			<path class="s5" d="m301.1 112.6l-2.1-1.1 2.1-1.3 2 1.3z"/>
			<path class="s5" d="m305.2 115l-2.1-1.2 2.1-1.2 2 1.2z"/>
			<path class="s5" d="m309.3 117.3l-2.1-1.1 2.1-1.2 2.1 1.2z"/>
			<path class="s25" d="m313.4 119.7l-2-1.1 2-1.3 2.1 1.3z"/>
			<path class="s5" d="m317.5 122.2l-2-1.3 2-1.2 2.1 1.2z"/>
			<path class="s5" d="m321.7 124.5l-2.1-1.2 2.1-1.1 2 1.1z"/>
			<path class="s5" d="m284.6 107.9l-2.1-1.2 2.1-1.2 2.1 1.2z"/>
			<path class="s5" d="m288.7 110.2l-2-1.1 2-1.2 2 1.2z"/>
			<path class="s5" d="m292.9 112.6l-2.2-1.1 2.2-1.3 2 1.3z"/>
			<path class="s5" d="m296.9 115l-2-1.2 2-1.2 2.1 1.2z"/>
			<path class="s5" d="m301 117.3l-2-1.1 2-1.2 2.1 1.2z"/>
			<path class="s5" d="m305.2 119.8l-2.1-1.2 2.1-1.3 2 1.3z"/>
			<path class="s5" d="m309.3 122.2l-2.1-1.3 2.1-1.1 2.1 1.1z"/>
			<path class="s5" d="m313.4 124.5l-2-1.2 2-1.1 2.1 1.1z"/>
			<path class="s5" d="m317.5 126.9l-2-1.2 2-1.2 2 1.2z"/>
			<path class="s5" d="m280.5 110.2l-2.1-1.1 2.1-1.2 2 1.2z"/>
			<path class="s5" d="m284.5 112.6l-2-1.1 2-1.3 2.2 1.3z"/>
			<path class="s25" d="m288.7 115l-2-1.2 2-1.2 2 1.2z"/>
			<path class="s5" d="m292.8 117.4l-2.1-1.2 2.1-1.2 2.1 1.2z"/>
			<path class="s2" d="m296.9 119.8l-2-1.2 2-1.2 2.1 1.2z"/>
			<path class="s5" d="m301 122.2l-2-1.3 2-1.1 2.1 1.1z"/>
			<path class="s5" d="m305.2 124.5l-2.1-1.2 2.1-1.1 2 1.1z"/>
			<path class="s5" d="m309.3 126.9l-2.1-1.2 2.1-1.2 2 1.2z"/>
			<path class="s5" d="m313.4 129.3l-2.1-1.2 2.1-1.2 2.1 1.2z"/>
			<path class="s5" d="m276.3 112.6l-2-1.1 2-1.3 2.1 1.3z"/>
			<path class="s5" d="m280.5 115.1l-2.1-1.3 2.1-1.2 2 1.2z"/>
			<path class="s25" d="m284.5 117.4l-2-1.2 2-1.1 2.1 1.1z"/>
			<path class="s5" d="m288.7 119.8l-2.1-1.2 2.1-1.2 2 1.2z"/>
			<path class="s5" d="m292.8 122.2l-2.1-1.3 2.1-1.1 2 1.1z"/>
			<path class="s2" d="m296.9 124.5l-2.1-1.1 2.1-1.2 2.1 1.2z"/>
			<path class="s25" d="m301 126.9l-2-1.2 2-1.2 2.1 1.2z"/>
			<path class="s5" d="m305.1 129.3l-2-1.2 2-1.2 2.1 1.2z"/>
			<path class="s2" d="m309.3 131.6l-2.1-1.1 2.1-1.2 2 1.2z"/>
			<path class="s5" d="m272.2 115.1l-2.1-1.3 2.1-1.1 2.1 1.1z"/>
			<path class="s25" d="m276.3 117.4l-2-1.2 2-1.1 2 1.1z"/>
			<path class="s5" d="m280.5 119.8l-2.2-1.2 2.2-1.2 2 1.2z"/>
			<path class="s5" d="m284.5 122.2l-2-1.2 2-1.2 2.1 1.2z"/>
			<path class="s5" d="m288.6 124.5l-2-1.1 2-1.2 2.1 1.2z"/>
			<path class="s5" d="m292.8 126.9l-2.1-1.2 2.1-1.2 2 1.2z"/>
			<path class="s5" d="m296.9 129.3l-2.1-1.2 2.1-1.2 2.1 1.2z"/>
			<path class="s25" d="m301 131.7l-2-1.2 2-1.2 2.1 1.2z"/>
			<path class="s5" d="m305.1 134.1l-2-1.3 2-1.1 2 1.1z"/>
			<path class="s5" d="m268.1 117.4l-2.1-1.2 2.1-1.1 2 1.1z"/>
			<path class="s2" d="m272.1 119.8l-2-1.2 2-1.2 2.2 1.2z"/>
			<path class="s5" d="m276.3 122.2l-2-1.2 2-1.2 2 1.2z"/>
			<path class="s5" d="m280.4 124.5l-2.1-1.1 2.1-1.2 2.1 1.2z"/>
			<path class="s5" d="m284.5 126.9l-2-1.2 2-1.2 2.1 1.2z"/>
			<path class="s5" d="m288.6 129.3l-2-1.2 2-1.2 2.1 1.2z"/>
			<path class="s25" d="m292.8 131.7l-2.1-1.2 2.1-1.2 2 1.2z"/>
			<path class="s5" d="m296.9 134.1l-2.1-1.3 2.1-1.1 2 1.1z"/>
			<path class="s5" d="m301 136.4l-2.1-1.2 2.1-1.1 2.1 1.1z"/>
			<path class="s22" d="m301 116.9l-64.7-37.4 64.7-37.4 64.9 37.4z"/>
			<path class="s16" d="m301 106.7l-47-27.2 47-27.3 47.2 27.3z"/>
			<path class="s8" d="m301 54.1l45.5 26.3 1.7-0.9-47.2-27.3-47 27.3 1.6 0.9z"/>
			<path class="s26" d="m365.9 79.5v21.2l-64.9 37.4v-21.2z"/>
			<path class="s12" d="m236.3 79.5v21.2l64.7 37.4v-21.2z"/>
			<g style="opacity: .5">
				<path class="s16" d="m240.7 89v6.6l56 32.4v-6.7z"/>
			</g>
			<path class="s8" d="m301 115.7l-63.7-36.9-1 0.7 64.7 37.4 64.9-37.4-1.1-0.7z"/>
			<path class="s16" d="m356.2 94.3v3.9l-45.4 26.2v-3.9z"/>
			<path class="s24" d="m236.3 79.5v21.2l64.7 37.4v-21.2z"/>
			<path class="s5" d="m282.2 115.8l-11.8-6.8v1.4l11.8 6.8z"/>
			<path class="s5" d="m268.7 108l-3.2-1.8v1.4l3.2 1.8z"/>
			<path class="s5" d="m253.8 99.4l-6.4-3.8v1.4l6.4 3.9z"/>
			<path class="s5" d="m259.7 102.8l-4.7-2.7v1.4l4.7 2.8z"/>
			<path class="s5" d="m264.2 105.4l-3.2-1.8v1.3l3.2 1.9z"/>
			<path class="s5" d="m301.1 61.6l-2-1.2 2-1.1 2 1.1z"/>
			<path class="s2" d="m305.3 64l-2.2-1.2 2.2-1.2 2 1.2z"/>
			<path class="s25" d="m309.3 66.4l-2-1.2 2-1.2 2.1 1.2z"/>
			<path class="s5" d="m313.5 68.7l-2.1-1.1 2.1-1.2 2 1.2z"/>
			<path class="s25" d="m317.6 71.1l-2.1-1.2 2.1-1.2 2 1.2z"/>
			<path class="s5" d="m321.7 73.5l-2.1-1.2 2.1-1.2 2.1 1.2z"/>
			<path class="s5" d="m325.8 75.9l-2-1.2 2-1.2 2.1 1.2z"/>
			<path class="s5" d="m329.9 78.3l-2-1.3 2-1.1 2.1 1.1z"/>
			<path class="s2" d="m334.1 80.6l-2.1-1.2 2.1-1.1 2 1.1z"/>
			<path class="s5" d="m297 64l-2.1-1.1 2.1-1.3 2.1 1.3z"/>
			<path class="s5" d="m301.1 66.4l-2-1.2 2-1.2 2 1.2z"/>
			<path class="s5" d="m305.2 68.7l-2.1-1.1 2.1-1.2 2.1 1.2z"/>
			<path class="s27" d="m309.3 71.2l-2-1.3 2-1.2 2.1 1.2z"/>
			<path class="s5" d="m313.4 73.5l-2-1.2 2-1.1 2.1 1.1z"/>
			<path class="s5" d="m317.6 75.9l-2.1-1.2 2.1-1.2 2 1.2z"/>
			<path class="s28" d="m321.7 78.3l-2.1-1.3 2.1-1.1 2 1.1z"/>
			<path class="s5" d="m325.8 80.6l-2.1-1.2 2.1-1.1 2.1 1.1z"/>
			<path class="s27" d="m329.9 83l-2-1.1 2-1.3 2 1.3z"/>
			<path class="s5" d="m292.9 66.4l-2.1-1.2 2.1-1.2 2 1.2z"/>
			<path class="s27" d="m296.9 68.8l-2-1.2 2-1.2 2.2 1.2z"/>
			<path class="s5" d="m301.1 71.2l-2-1.3 2-1.1 2 1.1z"/>
			<path class="s2" d="m305.2 73.5l-2.1-1.2 2.1-1.1 2 1.1z"/>
			<path class="s25" d="m309.3 75.9l-2.1-1.2 2.1-1.2 2.1 1.2z"/>
			<path class="s25" d="m313.4 78.3l-2-1.3 2-1.1 2.1 1.1z"/>
			<path class="s5" d="m317.6 80.6l-2.1-1.1 2.1-1.2 2 1.2z"/>
			<path class="s5" d="m321.7 83l-2.1-1.1 2.1-1.3 2 1.3z"/>
			<path class="s5" d="m325.8 85.4l-2.1-1.2 2.1-1.2 2.1 1.2z"/>
			<path class="s25" d="m288.7 68.8l-2-1.2 2-1.2 2.1 1.2z"/>
			<path class="s25" d="m292.9 71.2l-2.1-1.3 2.1-1.1 2 1.1z"/>
			<path class="s2" d="m296.9 73.5l-2-1.2 2-1.1 2.1 1.1z"/>
			<path class="s5" d="m301.1 75.9l-2.1-1.2 2.1-1.2 2 1.2z"/>
			<path class="s5" d="m305.2 78.3l-2.1-1.2 2.1-1.2 2 1.2z"/>
			<path class="s27" d="m309.3 80.6l-2.1-1.1 2.1-1.2 2.1 1.2z"/>
			<path class="s25" d="m313.4 83l-2-1.1 2-1.3 2.1 1.3z"/>
			<path class="s5" d="m317.5 85.4l-2-1.2 2-1.2 2.1 1.2z"/>
			<path class="s5" d="m321.7 87.8l-2.1-1.2 2.1-1.2 2 1.2z"/>
			<path class="s27" d="m284.6 71.2l-2.1-1.3 2.1-1.1 2.1 1.1z"/>
			<path class="s5" d="m288.7 73.5l-2-1.2 2-1.1 2 1.1z"/>
			<path class="s5" d="m292.9 75.9l-2.2-1.1 2.2-1.3 2 1.3z"/>
			<path class="s5" d="m296.9 78.3l-2-1.2 2-1.2 2.1 1.2z"/>
			<path class="s27" d="m301 80.6l-2-1.1 2-1.2 2.1 1.2z"/>
			<path class="s27" d="m305.2 83l-2.1-1.1 2.1-1.3 2 1.3z"/>
			<path class="s5" d="m309.3 85.4l-2.1-1.2 2.1-1.2 2.1 1.2z"/>
			<path class="s5" d="m313.4 87.8l-2-1.2 2-1.2 2.1 1.2z"/>
			<path class="s5" d="m317.5 90.2l-2-1.2 2-1.2 2 1.2z"/>
			<path class="s5" d="m280.5 73.5l-2.1-1.1 2.1-1.2 2 1.2z"/>
			<path class="s5" d="m284.5 75.9l-2-1.1 2-1.3 2.2 1.3z"/>
			<path class="s25" d="m288.7 78.3l-2-1.2 2-1.2 2 1.2z"/>
			<path class="s27" d="m292.8 80.6l-2.1-1.1 2.1-1.2 2.1 1.2z"/>
			<path class="s2" d="m296.9 83.1l-2-1.2 2-1.3 2.1 1.3z"/>
			<path class="s5" d="m301 85.4l-2-1.2 2-1.1 2.1 1.1z"/>
			<path class="s5" d="m305.2 87.8l-2.1-1.2 2.1-1.2 2 1.2z"/>
			<path class="s27" d="m309.3 90.2l-2.1-1.2 2.1-1.2 2 1.2z"/>
			<path class="s5" d="m313.4 92.5l-2.1-1.1 2.1-1.2 2.1 1.2z"/>
			<path class="s5" d="m276.3 75.9l-2-1.1 2-1.3 2.1 1.3z"/>
			<path class="s5" d="m280.5 78.3l-2.1-1.2 2.1-1.2 2 1.2z"/>
			<path class="s25" d="m284.5 80.7l-2-1.2 2-1.2 2.1 1.2z"/>
			<path class="s5" d="m288.7 83.1l-2.1-1.2 2.1-1.2 2 1.2z"/>
			<path class="s5" d="m292.8 85.4l-2.1-1.2 2.1-1.1 2 1.1z"/>
			<path class="s2" d="m296.9 87.8l-2.1-1.2 2.1-1.2 2.1 1.2z"/>
			<path class="s25" d="m301 90.2l-2-1.2 2-1.2 2.1 1.2z"/>
			<path class="s5" d="m305.1 92.5l-2-1.1 2-1.2 2.1 1.2z"/>
			<path class="s2" d="m309.3 94.9l-2.1-1.1 2.1-1.3 2 1.3z"/>
			<path class="s5" d="m272.2 78.4l-2.1-1.3 2.1-1.2 2.1 1.2z"/>
			<path class="s25" d="m276.3 80.7l-2-1.2 2-1.1 2 1.1z"/>
			<path class="s5" d="m280.5 83.1l-2.2-1.2 2.2-1.2 2 1.2z"/>
			<path class="s5" d="m284.5 85.4l-2-1.2 2-1.1 2.1 1.1z"/>
			<path class="s5" d="m288.6 87.8l-2-1.1 2-1.3 2.1 1.3z"/>
			<path class="s5" d="m292.8 90.2l-2.1-1.2 2.1-1.2 2 1.2z"/>
			<path class="s5" d="m296.9 92.5l-2.1-1.1 2.1-1.2 2.1 1.2z"/>
			<path class="s25" d="m301 94.9l-2-1.1 2-1.3 2.1 1.3z"/>
			<path class="s5" d="m305.1 97.4l-2-1.3 2-1.2 2 1.2z"/>
			<path class="s5" d="m268.1 80.7l-2.1-1.2 2.1-1.1 2 1.1z"/>
			<path class="s2" d="m272.1 83.1l-2-1.2 2-1.2 2.2 1.2z"/>
			<path class="s27" d="m276.3 85.4l-2-1.1 2-1.2 2 1.2z"/>
			<path class="s5" d="m280.4 87.8l-2.1-1.1 2.1-1.3 2.1 1.3z"/>
			<path class="s5" d="m284.5 90.2l-2-1.2 2-1.2 2.1 1.2z"/>
			<path class="s5" d="m288.6 92.5l-2-1.1 2-1.2 2.1 1.2z"/>
			<path class="s25" d="m292.8 95l-2.1-1.2 2.1-1.3 2 1.3z"/>
			<path class="s27" d="m296.9 97.4l-2.1-1.3 2.1-1.1 2 1.1z"/>
			<path class="s5" d="m301 99.7l-2.1-1.2 2.1-1.1 2.1 1.1z"/>
			<path fill-rule="evenodd" class="s5" d="m370.8 231.1c-1.2 0-2.2-0.4-3.2-0.9l-36.8-21.2c-0.6-0.4-0.9-0.9-0.9-1.7 0-0.7 0.3-1.2 0.9-1.6l66.6-38.5c0.1-0.1 0.3-0.1 0.4 0l39.8 23c0.6 0.3 0.9 0.9 0.9 1.6 0 0.7-0.3 1.2-0.9 1.7l-63.6 36.7c-0.9 0.5-2.1 0.9-3.2 0.9zm26.8-63.1l-66.4 38.3c-0.3 0.2-0.6 0.6-0.6 1 0 0.4 0.3 0.8 0.6 1l36.8 21.3c1.7 1 3.9 1 5.6 0l63.7-36.7c0.3-0.2 0.5-0.6 0.5-1 0-0.4-0.2-0.7-0.5-1z"/>
			<path class="s29" d="m397.7 152.4l-8.9-52.5 0.7-0.3-1-0.7c-0.3-0.2-0.5-0.2-0.8 0.1l-70.8 40.9c-0.6 0.3-1.1 1.2-0.9 1.8l8.8 53c0.1 0.2 0.2 0.5 0.5 0.5l1 0.6 0.2-1h-0.1l70.4-40.6c0.6-0.3 1-1.2 0.9-1.8z"/>
			<path class="s30" d="m317.2 141.3l-1.2-0.5c-0.1 0.4-0.1 0.7-0.1 0.9l8.9 53.1c0 0.2 0.1 0.4 0.4 0.5l1 0.6 0.2-1h-0.1l3.6-2z"/>
			<path class="s12" d="m397.9 154.9l-70.9 40.8c-0.5 0.4-0.9 0.2-1.1-0.4l-8.9-53c-0.1-0.6 0.3-1.5 0.9-1.8l70.8-40.9c0.6-0.3 1-0.1 1.2 0.4l8.9 53.1c0.1 0.5-0.4 1.4-0.9 1.8z"/>
			<g style="opacity: .5">
				<path class="s16" d="m387.8 103l-68.3 39.4 8.5 49.9 68.2-39.4z"/>
			</g>
			<path class="s31" d="m442.4 179.9l-3.8 2-38.8-22.3c-0.6-0.4-1.8-0.3-2.5 0.1l-66.8 38.6c-0.7-0.4-3.6-1.8-3.6-1.8l1.4 3.6c0.1 0.2 0.1 0.4 0.4 0.4l40.8 23.6c0.6 0.4 1.8 0.3 2.5-0.1l68.4-39.4c0.3-0.2 0.4-0.4 0.5-0.6z"/>
			<path class="s32" d="m441.8 180.6l-70.1 40.4c-0.7 0.4-1.9 0.5-2.6 0.1l-41.8-24.1c-0.7-0.4-0.6-1.1 0.2-1.5l70-40.5c0.8-0.4 2-0.5 2.6-0.1l41.9 24.2c0.6 0.3 0.6 1-0.2 1.5z"/>
			<path class="s8" d="m441.8 180.2l-70.1 40.4c-0.7 0.4-1.9 0.5-2.6 0.1l-41.8-24.1c-0.3-0.2-0.3-0.3-0.4-0.5-0.1 0.3 0 0.6 0.4 0.8l41.8 24.1c0.7 0.4 1.8 0.4 2.6-0.1l70.1-40.4c0.5-0.3 0.8-0.8 0.6-1.1-0.1 0.3-0.3 0.6-0.6 0.8z"/>
			<path class="s9" d="m350.5 212.3v-0.7c0-0.1 0.1-0.1 0.1-0.1l2.7 1.5c0.1 0 0.1 0.1 0.1 0.2v0.7c0 0.1-0.1 0.1-0.1 0.1l-2.7-1.5c0 0-0.1-0.1-0.1-0.2z"/>
			<path class="s9" d="m354.6 214.6v-0.8c0 0 0.1 0 0.1 0l2.7 1.5c0.1 0 0.1 0.1 0.1 0.2v0.7c0 0.1-0.1 0.1-0.1 0.1l-2.7-1.6c-0.1 0-0.1 0-0.1-0.1z"/>
			<path class="s10" d="m338.1 194.8l58.3-33.7c0.4-0.2 0.9-0.2 1.2 0l20.7 12c0.4 0.2 0.4 0.6 0 0.8l-58.2 33.6c-0.4 0.2-0.9 0.2-1.2 0l-20.8-12c-0.2-0.2-0.2-0.6 0-0.7z"/>
			<path class="s11" d="m338.1 195.5l0.3 0.1 58.1-33.6c0.4-0.2 0.9-0.2 1.2 0l20.5 12 0.3-0.1c0.3-0.2 0.3-0.6 0-0.8l-20.7-12c-0.4-0.2-0.9-0.2-1.3 0l-58.2 33.7c-0.4 0.1-0.4 0.5-0.2 0.7z"/>
			<path class="s12" d="m399.2 164.2l-50.5 29.2-2.3-1.3 50.6-29.2z"/>
			<path class="s12" d="m404.8 167.3l-47.5 27.5-2.3-1.3 47.5-27.5z"/>
			<path class="s12" d="m408.4 169.4l-55.9 32.3-2.3-1.3 55.9-32.3z"/>
			<path class="s12" d="m412 171.4l-55.9 32.3-2.3-1.3 55.9-32.2z"/>
			<path class="s12" d="m415.6 173.5l-55.9 32.3-2.3-1.3 55.9-32.3z"/>
			<path class="s12" d="m345.6 195.1l-2.2 1.3-2.3-1.3 2.3-1.3z"/>
			<path class="s12" d="m353.6 196.9l-4.8 2.7-2.2-1.3 4.7-2.7z"/>
			<path class="s33" d="m398.7 202.8l15.7-9c0.7-0.3 0.7-0.9 0-1.3l-10.8-6.2c-0.6-0.4-1.6-0.4-2.2 0l-15.7 9c-0.7 0.4-0.7 0.9 0 1.3l10.8 6.2c0.5 0.4 1.5 0.4 2.2 0z"/>
			<path class="s11" d="m385.7 195.9l15.7-9.1c0.7-0.3 1.7-0.3 2.2 0l10.8 6.2c0.2 0.1 0.3 0.3 0.4 0.5 0.2-0.4 0-0.7-0.4-0.9l-10.8-6.2c-0.6-0.4-1.6-0.4-2.2 0l-15.7 9c-0.4 0.3-0.6 0.6-0.4 0.9 0.1-0.2 0.2-0.3 0.4-0.4z"/>
			<g style="opacity: .1">
				<path class="s34" d="m397.6 154.9l-70.1 40.5c-0.7 0.4-1.9 0.5-2.6 0.1l-41.8-24.2c-0.7-0.4-0.6-1 0.1-1.4l70.1-40.5c0.7-0.4 2-0.5 2.6-0.1l41.9 24.2c0.7 0.3 0.6 1-0.2 1.4z"/>
				<path class="s35" d="m327.3 162.2l15.7-9c0.7-0.4 0.7-0.9 0-1.4l-10.7-6.1c-0.7-0.4-1.7-0.4-2.2 0l-15.8 9c-0.6 0.3-0.6 0.9 0 1.3l10.8 6.2c0.6 0.3 1.6 0.3 2.2 0z"/>
				<path class="s11" d="m314.3 155.2l15.8-9.1c0.6-0.3 1.6-0.3 2.2 0l10.7 6.2c0.2 0.1 0.4 0.3 0.4 0.4 0.2-0.3 0-0.6-0.4-0.9l-10.7-6.1c-0.7-0.4-1.7-0.4-2.2 0l-15.8 9c-0.4 0.2-0.5 0.6-0.4 0.9 0.2-0.2 0.3-0.2 0.4-0.4z"/>
				<path class="s10" d="m307.5 176.3l58.2-33.6c0.4-0.2 0.9-0.2 1.2 0l20.8 12c0.3 0.2 0.3 0.6 0 0.7l-58.2 33.7c-0.4 0.3-0.9 0.3-1.2 0l-20.8-12c-0.4-0.1-0.4-0.5 0-0.8z"/>
				<path class="s11" d="m307.5 177.1l0.2 0.1 58.1-33.5c0.4-0.3 0.9-0.3 1.2 0l20.6 11.9 0.2-0.1c0.3-0.1 0.3-0.6 0-0.7l-20.7-12c-0.4-0.2-0.9-0.2-1.2 0l-58.3 33.6c-0.5 0.2-0.5 0.6-0.1 0.7z"/>
				<path class="s12" d="m382.3 153.9l-50.8 29.3 2 1.2 50.8-29.3z"/>
				<path class="s12" d="m376.9 150.8l-48.2 27.9 2 1.1 48.2-27.8z"/>
				<path class="s12" d="m325.1 180.7l-4.5 2.6 2 1.2 4.5-2.5z"/>
				<path class="s12" d="m329.1 184.6l-3.2 1.8 2 1.2 3.1-1.8z"/>
				<path class="s12" d="m373.5 148.9l-56.2 32.5 1.9 1.2 56.4-32.5z"/>
				<path class="s12" d="m370.2 147l-56.3 32.5 2 1.1 56.3-32.5z"/>
				<path class="s12" d="m366.9 145l-56.4 32.5 2 1.2 56.4-32.5z"/>
			</g>
			<path class="s5" d="m345.2 173.3l5.6-3.2 0.1 0.9-5.5 3.3z"/>
			<path class="s5" d="m351.7 169.6l3-1.8 0.2 1-3.1 1.7z"/>
			<path class="s5" d="m359.4 165.1l2.2-1.2 0.1 0.9-2.2 1.3z"/>
			<path class="s5" d="m357.8 166l0.7-0.4 0.2 1-0.7 0.4z"/>
			<path class="s5" d="m355.6 167.3l1.3-0.8 0.2 1-1.3 0.7z"/>
			<path class="s5" d="m349.6 166l2.2-1.3 0.2 0.9-2.2 1.3z"/>
			<path class="s5" d="m344.5 168.9l4.3-2.4 0.2 0.9-4.3 2.5z"/>
			<path class="s5" d="m350.6 153.4l4.3-2.5 0.1 0.9-4.2 2.5z"/>
			<path class="s5" d="m348.4 154.6l1.4-0.8 0.2 1-1.4 0.8z"/>
			<path class="s5" d="m351.4 157.7l4.2-2.4 0.2 1-4.3 2.4z"/>
			<path class="s5" d="m349.2 159l1.3-0.8 0.2 1-1.4 0.8z"/>
			<path class="s5" d="m347.5 134.4l-8.1 4.6-0.1-0.9 8.1-4.6z"/>
			<path class="s5" d="m350.3 132.8l-2 1.1-0.1-0.9 1.9-1.1z"/>
			<path class="s5" d="m364.4 131.9l-8 4.6-0.1-1 7.9-4.6z"/>
			<path class="s5" d="m367.3 130.2l-2 1.2-0.2-1 2-1.1z"/>
			<path class="s5" d="m342 140l-2.1 1.2-0.2-0.9 2.1-1.3z"/>
			<path class="s5" d="m355.3 137.2l-2.2 1.2-0.2-0.9 2.2-1.3z"/>
			<path class="s5" d="m347.1 137.1l-4.2 2.4-0.2-0.9 4.3-2.5z"/>
			<path class="s5" d="m349.3 135.8l-1.4 0.8-0.1-1 1.4-0.8z"/>
			<path class="s5" d="m354.5 132.8l-4.3 2.5-0.1-1 4.2-2.4z"/>
			<path class="s5" d="m356.7 131.5l-1.4 0.9-0.2-1 1.4-0.8z"/>
			<path class="s5" d="m354.9 135l-2.2 1.2-0.2-0.9 2.2-1.3z"/>
			<path class="s5" d="m360 132l-4.2 2.5-0.2-1 4.2-2.5z"/>
			<path class="s5" d="m362.2 130.7l-1.4 0.8-0.1-0.9 1.3-0.8z"/>
			<path class="s5" d="m344.7 140.8l-4.5 2.6-0.2-0.9 4.5-2.6z"/>
			<path class="s5" d="m348.7 138.6l-3.2 1.8-0.2-1 3.3-1.8z"/>
			<path class="s5" d="m351.8 136.8l-2.2 1.3-0.2-1 2.2-1.2z"/>
			<path class="s5" d="m372.9 127l-4.5 2.6-0.2-1 4.5-2.5z"/>
			<path class="s5" d="m376.9 124.7l-3.2 1.8-0.2-0.9 3.2-1.9z"/>
			<path class="s5" d="m379.9 122.9l-2.1 1.3-0.2-1 2.1-1.3z"/>
			<path class="s5" d="m371.1 155.9l4.5-2.5 0.1 1-4.4 2.5z"/>
			<path class="s5" d="m367 158.3l3.3-1.9 0.1 1-3.2 1.9z"/>
			<path class="s5" d="m364 160.1l2.2-1.3 0.2 1-2.2 1.2z"/>
			<path class="s5" d="m369.6 159.2l4.5-2.5 0.2 0.9-4.5 2.6z"/>
			<path class="s5" d="m365.6 161.6l3.2-1.9 0.2 1-3.3 1.8z"/>
			<path class="s5" d="m362.5 163.4l2.2-1.4 0.2 1-2.2 1.2z"/>
			<path class="s5" d="m351.7 155.2l1.5-0.9 0.1 1-1.5 0.8z"/>
			<path class="s5" d="m348.8 156.8l2-1.1 0.1 0.9-1.9 1.2z"/>
			<path class="s5" d="m345.1 143l-4.5 2.7-0.2-1 4.5-2.6z"/>
			<path class="s5" d="m349.1 140.7l-3.2 1.9-0.2-1 3.3-1.8z"/>
			<path class="s5" d="m352.2 139l-2.2 1.2-0.2-0.9 2.2-1.3z"/>
			<path class="s5" d="m342.5 147l-1.5 0.9-0.2-1 1.5-0.9z"/>
			<path class="s5" d="m345.3 145.3l-2 1.2-0.2-1 2.1-1.2z"/>
			<path class="s5" d="m349.3 143l-3.2 1.8-0.1-0.9 3.2-1.9z"/>
			<path class="s5" d="m353.7 161.2l1.5-0.9 0.2 1-1.5 0.9z"/>
			<path class="s5" d="m350.9 162.9l1.9-1.2 0.2 1-2 1.1z"/>
			<path class="s5" d="m346.8 165.2l3.3-1.8 0.1 0.9-3.2 1.8z"/>
			<path class="s5" d="m356 157.6l3.2-1.8 0.2 0.9-3.2 1.9z"/>
			<path class="s5" d="m350.7 160.5l4.3-2.5 0.2 0.9-4.3 2.6z"/>
			<path class="s5" d="m348.6 161.8l1.3-0.8 0.2 1-1.4 0.7z"/>
			<path class="s5" d="m346.5 163l1.3-0.8 0.1 1-1.3 0.7z"/>
			<path class="s5" d="m346.7 150.6l4.3-2.4 0.2 0.9-4.3 2.5z"/>
			<path class="s5" d="m344.5 151.8l1.4-0.7 0.2 1-1.4 0.7z"/>
			<path class="s5" d="m347 148l1.5-0.8 0.2 0.9-1.5 0.9z"/>
			<path class="s5" d="m352.3 149.8l1.5-0.9 0.2 1-1.5 0.9z"/>
			<path class="s5" d="m354.5 148.6l3.6-2.1 0.2 0.9-3.7 2.1z"/>
			<path class="s5" d="m358.7 146.1l2.2-1.3 0.2 1-2.2 1.2z"/>
			<path class="s5" d="m344.2 149.6l2-1.1 0.2 1-2.1 1.1z"/>
			<path class="s5" d="m344 147.4l1.5-0.9 0.1 1-1.4 0.9z"/>
			<path class="s5" d="m341.2 149.1l2-1.2 0.2 1-2.1 1.2z"/>
			<path class="s5" d="m350.1 151l1.4-0.7 0.2 0.9-1.4 0.8z"/>
			<path class="s5" d="m348 152.3l1.4-0.8 0.2 0.9-1.4 0.8z"/>
			<path class="s5" d="m358.5 163.3l4.5-2.6 0.2 0.9-4.6 2.6z"/>
			<path class="s5" d="m353.2 166.3l4.4-2.5 0.1 0.9-4.3 2.6z"/>
			<path class="s5" d="m351 167.5l1.4-0.7 0.2 1-1.4 0.7z"/>
			<path class="s5" d="m349 168.7l1.3-0.7 0.2 0.9-1.3 0.8z"/>
			<path class="s5" d="m347.8 169.4l-2.9 1.7 0.2 1 2.9-1.7z"/>
			<g style="opacity: .8">
				<path fill-rule="evenodd" class="s36" d="m231.3 231.1c-1.2 0-2.3-0.3-3.3-0.9l-63.6-36.7c-0.7-0.3-1-0.9-1-1.7 0-0.7 0.4-1.4 1-1.7l40-23.2 0.3 0.2 66.6 38.5c0.7 0.3 1 1 1 1.7 0 0.8-0.4 1.4-1 1.7l-36.8 21.3c-0.9 0.5-2.1 0.8-3.2 0.8zm-2.8-1.7c1.7 1 3.8 1 5.6 0l36.7-21.3c0.4-0.1 0.5-0.5 0.5-0.9 0-0.3-0.1-0.6-0.5-0.8l-66.4-38.3-39.6 22.8c-0.3 0.2-0.5 0.5-0.5 0.9 0 0.3 0.2 0.7 0.5 0.8z"/>
			</g>
			<path class="s37" d="m204.4 152.4l8.9-52.5-0.7-0.3 1.1-0.7c0.2-0.2 0.4-0.2 0.8 0.1l70.8 40.9c0.6 0.3 1 1.2 0.9 1.8l-8.9 53c-0.1 0.2-0.2 0.5-0.4 0.5l-1.1 0.6-0.1-1-70.4-40.6c-0.5-0.3-0.9-1.2-0.9-1.8z"/>
			<path class="s38" d="m284.9 141.3l1.1-0.5c0.2 0.4 0.2 0.7 0.2 0.9l-8.9 53.1c-0.1 0.2-0.2 0.4-0.4 0.5l-1.1 0.6-0.1-1-3.6-2z"/>
			<path class="s12" d="m204.3 154.9l70.8 40.8c0.6 0.4 1 0.2 1.1-0.4l8.9-53c0.1-0.6-0.3-1.5-0.9-1.8l-70.8-40.9c-0.6-0.3-1-0.1-1.1 0.4l-8.9 53.1c-0.2 0.5 0.2 1.4 0.9 1.8z"/>
			<g style="opacity: .5">
				<path class="s16" d="m214.3 103l68.3 39.4-8.5 49.9-68.2-39.4z"/>
			</g>
			<path class="s39" d="m159.7 179.9l3.9 2 38.7-22.3c0.7-0.4 1.8-0.3 2.6 0.1l66.8 38.6c0.6-0.4 3.5-1.8 3.5-1.8l-1.3 3.6c-0.1 0.2-0.2 0.4-0.4 0.4l-40.8 23.7c-0.7 0.4-1.8 0.3-2.6-0.1l-68.4-39.5c-0.3-0.2-0.5-0.4-0.6-0.6z"/>
			<path class="s40" d="m160.3 180.6l70.1 40.4c0.7 0.4 1.9 0.5 2.6 0.1l41.8-24.1c0.7-0.4 0.6-1.1-0.1-1.5l-70.1-40.5c-0.7-0.4-2-0.5-2.6-0.1l-41.9 24.2c-0.6 0.3-0.5 1 0.2 1.5z"/>
			<path class="s8" d="m160.3 180.2l70.1 40.4c0.7 0.4 1.9 0.5 2.6 0.1l41.8-24.1c0.3-0.2 0.4-0.3 0.4-0.5 0.1 0.3 0 0.6-0.4 0.8l-41.8 24.1c-0.7 0.4-1.8 0.4-2.6-0.1l-70.1-40.4c-0.5-0.3-0.7-0.8-0.6-1.1 0.1 0.3 0.3 0.6 0.6 0.8z"/>
			<path class="s9" d="m251.6 212.3v-0.7c0-0.1-0.1-0.1-0.1-0.1l-2.7 1.5c-0.1 0-0.1 0.1-0.1 0.2v0.7c0 0.1 0.1 0.1 0.1 0.1l2.7-1.5c0 0 0.1-0.1 0.1-0.2z"/>
			<path class="s9" d="m247.5 214.6v-0.8c0 0-0.1 0-0.1 0l-2.7 1.5c0 0 0 0.1 0 0.2v0.7c0 0.1 0 0.1 0 0.1l2.7-1.6c0 0 0.1 0 0.1-0.1z"/>
			<path class="s10" d="m263.9 194.8l-58.2-33.7c-0.4-0.2-0.9-0.2-1.3 0l-20.7 12c-0.3 0.1-0.3 0.5 0 0.7l58.3 33.6c0.4 0.2 0.9 0.2 1.2 0l20.8-12c0.2-0.1 0.2-0.5-0.1-0.6z"/>
			<path class="s11" d="m263.9 195.5l-0.2 0.1-58.1-33.6c-0.4-0.2-0.9-0.2-1.2 0l-20.6 12-0.2-0.1c-0.4-0.2-0.4-0.6 0-0.8l20.7-12c0.4-0.2 0.9-0.2 1.2 0l58.2 33.7c0.5 0.1 0.5 0.5 0.2 0.7z"/>
			<path class="s12" d="m207.7 166.9l49.4 28.5 2.1-1.4-49.2-28.4z"/>
			<path class="s12" d="m204.5 171.4l44.8 25.9 1.6-1.7-44.1-25.4z"/>
			<path class="s12" d="m193.8 169.4l55.8 32.3 2.3-1.3-55.9-32.3z"/>
			<path class="s12" d="m190.2 171.4l55.8 32.3 2.3-1.3-55.8-32.2z"/>
			<path class="s12" d="m186.6 173.5l55.9 32.3 2.2-1.3-55.8-32.3z"/>
			<path class="s12" d="m256.6 195.1l2.2 1.3 2.3-1.3-2.3-1.3z"/>
			<path class="s12" d="m248.6 196.9l4.6 2.7 2.3-1.3-4.6-2.7z"/>
			<path class="s41" d="m203.5 202.8l-15.8-9c-0.6-0.3-0.6-0.9 0-1.3l10.8-6.2c0.6-0.4 1.6-0.4 2.2 0l15.7 9c0.7 0.4 0.7 0.9 0 1.3l-10.7 6.2c-0.6 0.4-1.7 0.4-2.2 0z"/>
			<path class="s11" d="m216.4 195.9l-15.7-9.1c-0.7-0.3-1.6-0.3-2.2 0l-10.8 6.2c-0.1 0.1-0.3 0.3-0.4 0.5-0.2-0.4 0-0.7 0.4-0.9l10.8-6.2c0.6-0.4 1.6-0.4 2.2 0l15.7 9c0.4 0.3 0.6 0.6 0.4 0.9 0-0.2-0.2-0.3-0.4-0.4z"/>
			<g style="opacity: .1">
				<path class="s42" d="m204.5 154.9l70.1 40.5c0.7 0.4 2 0.5 2.6 0.1l41.9-24.2c0.6-0.4 0.5-1-0.2-1.4l-70.1-40.5c-0.7-0.4-1.9-0.5-2.6-0.1l-41.8 24.2c-0.8 0.3-0.7 1 0.1 1.4z"/>
				<path class="s43" d="m274.8 162.2l-15.7-9c-0.7-0.4-0.7-0.9 0-1.4l10.8-6.1c0.6-0.4 1.6-0.4 2.2 0l15.7 9c0.7 0.3 0.7 0.9 0 1.3l-10.8 6.2c-0.6 0.3-1.6 0.3-2.2 0z"/>
				<path class="s11" d="m287.7 155.2l-15.7-9.1c-0.7-0.3-1.6-0.3-2.2 0l-10.8 6.2c-0.1 0.1-0.3 0.3-0.4 0.4-0.2-0.3 0-0.6 0.4-0.9l10.8-6.1c0.6-0.4 1.6-0.4 2.2 0l15.7 9c0.4 0.2 0.6 0.6 0.4 0.9 0-0.2-0.1-0.2-0.4-0.4z"/>
				<path class="s10" d="m294.7 176.3l-58.3-33.6c-0.4-0.2-0.9-0.2-1.2 0l-20.7 12c-0.4 0.2-0.4 0.6 0 0.7l58.1 33.7c0.4 0.3 0.9 0.3 1.3 0l20.8-12c0.3-0.1 0.3-0.5 0-0.8z"/>
				<path class="s11" d="m294.7 177.1l-0.3 0.1-58.1-33.5c-0.4-0.3-0.9-0.3-1.2 0l-20.5 11.9-0.3-0.1c-0.3-0.1-0.3-0.6 0-0.7l20.7-12c0.4-0.2 0.9-0.2 1.3 0l58.2 33.6c0.5 0.2 0.5 0.6 0.2 0.7z"/>
				<path class="s12" d="m219.9 153.9l50.7 29.3-2 1.2-50.8-29.3z"/>
				<path class="s12" d="m225.2 150.8l48.3 27.9-2.1 1.1-48.2-27.8z"/>
				<path class="s12" d="m277 180.7l4.5 2.6-2 1.2-4.5-2.5z"/>
				<path class="s12" d="m273 184.6l3.2 1.8-2 1.2-3.2-1.8z"/>
				<path class="s12" d="m228.5 148.9l56.4 32.5-2 1.2-56.4-32.5z"/>
				<path class="s12" d="m231.9 147l56.3 32.5-1.9 1.1-56.4-32.5z"/>
				<path class="s12" d="m235.3 145l56.3 32.5-2 1.2-56.4-32.5z"/>
			</g>
			<path class="s5" d="m229.6 121.5l5.5 3.2 0.2-1-5.6-3.2z"/>
			<path class="s5" d="m236 125.2l3 1.8 0.2-1-3-1.8z"/>
			<path class="s5" d="m243.7 129.7l2.2 1.2 0.1-1-2.2-1.2z"/>
			<path class="s5" d="m242.1 128.7l0.8 0.5 0.1-1-0.7-0.4z"/>
			<path class="s5" d="m239.9 127.5l1.3 0.7 0.2-0.9-1.3-0.8z"/>
			<path class="s5" d="m234 128.8l2.1 1.3 0.2-1-2.2-1.2z"/>
			<path class="s5" d="m228.8 125.9l4.3 2.5 0.1-1-4.2-2.5z"/>
			<path class="s5" d="m235 141.4l4.2 2.5 0.2-0.9-4.3-2.6z"/>
			<path class="s5" d="m232.7 140.2l1.4 0.7 0.2-1-1.4-0.7z"/>
			<path class="s5" d="m235.7 137l4.2 2.5 0.2-0.9-4.3-2.5z"/>
			<path class="s5" d="m233.5 135.8l1.3 0.7 0.2-0.9-1.4-0.8z"/>
			<path class="s5" d="m231.8 160.3l-8-4.6-0.2 1 8 4.6z"/>
			<path class="s5" d="m234.6 162l-1.9-1.2-0.2 1 2 1.1z"/>
			<path class="s5" d="m248.7 162.9l-8-4.6-0.1 1 8 4.5z"/>
			<path class="s5" d="m251.6 164.6l-2-1.2-0.1 0.9 1.9 1.3z"/>
			<path class="s5" d="m226.3 154.8l-2.2-1.3-0.2 1 2.2 1.3z"/>
			<path class="s5" d="m239.6 157.6l-2.2-1.3-0.2 1 2.2 1.2z"/>
			<path class="s5" d="m231.4 157.7l-4.2-2.4-0.2 1 4.3 2.4z"/>
			<path class="s5" d="m233.6 159l-1.3-0.8-0.2 1 1.4 0.7z"/>
			<path class="s5" d="m238.8 162l-4.3-2.5-0.1 1 4.2 2.4z"/>
			<path class="s5" d="m241 163.3l-1.4-0.8-0.2 0.9 1.4 0.8z"/>
			<path class="s5" d="m239.2 159.8l-2.2-1.3-0.2 1 2.2 1.2z"/>
			<path class="s5" d="m244.3 162.8l-4.3-2.5-0.2 0.9 4.4 2.5z"/>
			<path class="s5" d="m246.5 164l-1.4-0.7-0.1 0.9 1.4 0.8z"/>
			<path class="s5" d="m229 153.9l-4.5-2.5-0.2 0.9 4.5 2.6z"/>
			<path class="s5" d="m233 156.3l-3.2-1.9-0.2 1 3.2 1.8z"/>
			<path class="s5" d="m236.1 158l-2.2-1.3-0.2 1 2.2 1.2z"/>
			<path class="s5" d="m257.1 167.8l-4.4-2.6-0.1 0.9 4.4 2.6z"/>
			<path class="s5" d="m261.2 170.1l-3.2-1.9-0.1 1 3.2 1.9z"/>
			<path class="s5" d="m264.2 171.8l-2.1-1.2-0.1 1 2.1 1.2z"/>
			<path class="s5" d="m255.4 138.8l4.5 2.6 0.2-1-4.5-2.5z"/>
			<path class="s5" d="m251.3 136.4l3.3 1.9 0.2-0.9-3.3-1.9z"/>
			<path class="s5" d="m248.3 134.7l2.2 1.2 0.2-0.9-2.2-1.3z"/>
			<path class="s5" d="m254 135.5l4.4 2.6 0.2-0.9-4.5-2.6z"/>
			<path class="s5" d="m249.9 133.2l3.2 1.8 0.2-0.9-3.3-1.8z"/>
			<path class="s5" d="m246.9 131.5l2.2 1.2 0.1-0.9-2.2-1.3z"/>
			<path class="s5" d="m235.9 139.6l1.6 0.9 0.1-1-1.5-0.9z"/>
			<path class="s5" d="m233.2 138l1.9 1.1 0.2-1-2-1.1z"/>
			<path class="s5" d="m229.4 151.7l-4.5-2.5-0.1 0.9 4.4 2.6z"/>
			<path class="s5" d="m233.4 154.1l-3.2-1.9-0.1 1 3.1 1.8z"/>
			<path class="s5" d="m236.4 155.8l-2.1-1.3-0.2 1 2.2 1.2z"/>
			<path class="s5" d="m226.8 147.9l-1.6-0.9-0.1 0.9 1.5 0.8z"/>
			<path class="s5" d="m229.6 149.5l-2-1.2-0.2 0.9 2.1 1.2z"/>
			<path class="s5" d="m233.6 151.8l-3.1-1.8-0.2 0.9 3.2 1.8z"/>
			<path class="s5" d="m238 133.6l1.5 0.8 0.2-0.9-1.6-0.9z"/>
			<path class="s5" d="m235.2 131.9l2 1.2 0.1-1-1.9-1.1z"/>
			<path class="s5" d="m231.1 129.6l3.2 1.9 0.2-1-3.2-1.9z"/>
			<path class="s5" d="m240.3 137.1l3.2 1.9 0.2-1-3.2-1.8z"/>
			<path class="s5" d="m235 134.2l4.4 2.6 0.1-1-4.3-2.5z"/>
			<path class="s5" d="m232.8 133l1.4 0.7 0.2-0.9-1.4-0.8z"/>
			<path class="s5" d="m230.8 131.8l1.3 0.8 0.2-1-1.3-0.8z"/>
			<path class="s5" d="m231 144.2l4.3 2.4 0.1-0.9-4.2-2.5z"/>
			<path class="s5" d="m228.8 142.9l1.4 0.8 0.2-1-1.4-0.8z"/>
			<path class="s5" d="m231.4 146.7l1.4 0.9 0.2-1-1.5-0.8z"/>
			<path class="s5" d="m236.7 145l1.4 0.8 0.2-0.9-1.5-0.9z"/>
			<path class="s5" d="m238.8 146.2l3.6 2.1 0.1-0.9-3.6-2.2z"/>
			<path class="s5" d="m243 148.7l2.2 1.2 0.2-1-2.2-1.2z"/>
			<path class="s5" d="m228.5 145.1l2 1.1 0.1-0.9-1.9-1.2z"/>
			<path class="s5" d="m228.3 147.4l1.5 0.8 0.2-0.9-1.5-0.9z"/>
			<path class="s5" d="m225.5 145.7l1.9 1.2 0.2-1-1.9-1.1z"/>
			<path class="s5" d="m234.5 143.7l1.3 0.8 0.2-1-1.4-0.7z"/>
			<path class="s5" d="m232.3 142.5l1.4 0.8 0.2-1-1.4-0.7z"/>
			<path class="s5" d="m242.8 131.5l4.6 2.6 0.1-0.9-4.6-2.6z"/>
			<path class="s5" d="m237.6 128.5l4.3 2.5 0.1-0.9-4.3-2.6z"/>
			<path class="s5" d="m235.4 127.2l1.3 0.8 0.2-0.9-1.4-0.8z"/>
			<path class="s5" d="m233.3 126l1.3 0.8 0.2-1-1.4-0.7z"/>
			<path class="s5" d="m232.1 125.3l-2.9-1.6 0.2-1 2.9 1.7z"/>
			<path class="s12" d="m202.9 164.2l2.2 1.2 2.3-1.2-2.3-1.3z"/>
			<path class="s12" d="m197.3 167.3l4.7 2.7 2.3-1.3-4.7-2.7z"/>
			<path class="s44" d="m348.2 79.5v-135.5h-94.2v135.5l47 27.2z"/>
		</g>
	</g>
</svg>